{"extensionsUsed" : ["KHR_materials_specular"], "accessors" : [{"bufferView" : 0, "byteOffset" : 0, "componentType" : 5123, "count" : 16464, "type" : "SCALAR", "max" : [4387], "min" : [0]}, {"bufferView" : 1, "byteOffset" : 0, "componentType" : 5126, "count" : 4388, "type" : "VEC3", "max" : [39.95798873901367, 77.75019836425781, 40.79796600341797], "min" : [-45.966163635253906, -56.745887756347656, -47.846195220947266], "name" : "POSITION"}, {"bufferView" : 1, "byteOffset" : 12, "componentType" : 5126, "count" : 4388, "type" : "VEC3", "max" : [1.0000044107437134, 1.0000044107437134, 1.000002145767212], "min" : [-1.0000044107437134, -1.0000040531158447, -0.9999962449073792], "name" : "NORMAL"}, {"bufferView" : 1, "byteOffset" : 24, "componentType" : 5126, "count" : 4388, "type" : "VEC4", "max" : [1.0000044107437134, 1.0000044107437134, 0.9999884963035583, 1], "min" : [-1.0000044107437134, -1.000003695487976, -0.999998152256012, -1], "name" : "TANGENT"}, {"bufferView" : 1, "byteOffset" : 40, "componentType" : 5126, "count" : 4388, "type" : "VEC2", "max" : [0.99609375, 1.96670663356781], "min" : [0.00390625, 1.00390625], "name" : "TEXCOORD_0"}], "asset" : {"generator" : "Aspose.3D 24.6.0", "version" : "2.0"}, "buffers" : [{"uri" : "data:application/octet-stream;base64,", "byteLength" : 243560}], "bufferViews" : [{"buffer" : 0, "byteOffset" : 0, "byteLength" : 32928, "target" : 34963}, {"buffer" : 0, "byteOffset" : 32932, "byteLength" : 210624, "byteStride" : 48, "target" : 34962}], "images" : [{"uri" : "data:image/png;base64,"}, {"uri" : "data:image/png;base64,"}, {"uri" : "data:image/png;base64,"}], "materials" : [{"name" : "phong1", "extensions" : {"KHR_materials_specular" : {"specularColorFactor" : [1, 1, 1], "specularFactor" : 1}}, "pbrMetallicRoughness" : {"baseColorFactor" : [1, 1, 1, 1], "baseColorTexture" : {"index" : 1, "texCoord" : 0}, "metallicFactor" : 1, "roughnessFactor" : 1, "metallicRoughnessTexture" : {"index" : 2, "texCoord" : 0}}, "normalTexture" : {"index" : 0, "texCoord" : 0, "scale" : 1}, "emissiveFactor" : [0, 0, 0], "alphaMode" : "OPAQUE", "doubleSided" : true}], "meshes" : [{"primitives" : [{"attributes" : {"POSITION" : 1, "NORMAL" : 2, "TANGENT" : 3, "TEXCOORD_0" : 4}, "indices" : 0, "material" : 0, "mode" : 4}]}], "nodes" : [{"mesh" : 0, "name" : "officeChair_phong1_0"}, {"children" : [0], "name" : "officeChair"}, {"children" : [1], "name" : "RootNode"}, {"children" : [2], "matrix" : [0.009999999776482582, 0, 0, 0, 0, 0, 0.009999999776482582, 0, 0, -0.009999999776482582, 0, 0, 0, 0, 0, 1], "name" : "105a77fc7152494dbc314d811ce451b2.fbx"}, {"children" : [3], "matrix" : [1.08695650100708, 0, 0, 0, 0, 4.161487607808576E-16, -1.08695650100708, 0, 0, 1.08695650100708, 4.161487607808576E-16, 0, 0, 0, 0, 1], "name" : "Sketchfab_model"}], "samplers" : [{"magFilter" : 9729, "minFilter" : 9987, "wrapS" : 10497, "wrapT" : 10497}, {"magFilter" : 9729, "minFilter" : 9987, "wrapS" : 10497, "wrapT" : 10497}, {"magFilter" : 9729, "minFilter" : 9987, "wrapS" : 10497, "wrapT" : 10497}], "scene" : 0, "scenes" : [{"nodes" : [4]}], "textures" : [{"sampler" : 0, "source" : 0, "name" : ""}, {"sampler" : 1, "source" : 1, "name" : ""}, {"sampler" : 2, "source" : 2, "name" : ""}]}