{"accessors" : [{"bufferView" : 0, "byteOffset" : 0, "componentType" : 5123, "count" : 5664, "type" : "SCALAR", "max" : [1231], "min" : [0]}, {"bufferView" : 1, "byteOffset" : 0, "componentType" : 5126, "count" : 1232, "type" : "VEC3", "max" : [0.8958335518836975, 0.8473169803619385, 0.7054800391197205], "min" : [-0.8958335518836975, 0.016972269862890244, -0.8958335518836975], "name" : "POSITION"}, {"bufferView" : 1, "byteOffset" : 12, "componentType" : 5126, "count" : 1232, "type" : "VEC3", "max" : [1.0000044107437134, 1.0000044107437134, 1.0000044107437134], "min" : [-1.0000044107437134, -1.0000044107437134, -1.0000044107437134], "name" : "NORMAL"}, {"bufferView" : 1, "byteOffset" : 24, "componentType" : 5126, "count" : 1232, "type" : "VEC2", "max" : [0.48472103476524353, 2.000000238418579], "min" : [0.1250000149011612, 1], "name" : "TEXCOORD_0"}, {"bufferView" : 0, "byteOffset" : 11328, "componentType" : 5123, "count" : 78144, "type" : "SCALAR", "max" : [17234], "min" : [0]}, {"bufferView" : 2, "byteOffset" : 0, "componentType" : 5126, "count" : 17235, "type" : "VEC3", "max" : [0.8932960629463196, 0.9692807793617249, 0.6860480904579163], "min" : [-0.8932960629463196, 0.11660069227218628, -0.8932967782020569], "name" : "POSITION"}, {"bufferView" : 2, "byteOffset" : 12, "componentType" : 5126, "count" : 17235, "type" : "VEC3", "max" : [1.0000044107437134, 0.9982699751853943, 1.0000044107437134], "min" : [-1.0000044107437134, -1.0000033378601074, -1.0000044107437134], "name" : "NORMAL"}, {"bufferView" : 2, "byteOffset" : 24, "componentType" : 5126, "count" : 17235, "type" : "VEC2", "max" : [0.4847210645675659, 1.750000238418579], "min" : [0.3863053619861603, 1], "name" : "TEXCOORD_0"}, {"bufferView" : 0, "byteOffset" : 167616, "componentType" : 5123, "count" : 9216, "type" : "SCALAR", "max" : [1959], "min" : [0]}, {"bufferView" : 3, "byteOffset" : 0, "componentType" : 5126, "count" : 1960, "type" : "VEC3", "max" : [0.7689379453659058, 0.15194176137447357, 0.7173152565956116], "min" : [-0.7689379453659058, -0.15194176137447357, -0.7689379453659058], "name" : "POSITION"}, {"bufferView" : 3, "byteOffset" : 12, "componentType" : 5126, "count" : 1960, "type" : "VEC3", "max" : [1.0000044107437134, 1.0000044107437134, 1.0000044107437134], "min" : [-1.0000044107437134, -1.0000044107437134, -1.0000044107437134], "name" : "NORMAL"}, {"bufferView" : 3, "byteOffset" : 24, "componentType" : 5126, "count" : 1960, "type" : "VEC2", "max" : [0.3815247416496277, 2.000000238418579], "min" : [0.1250000149011612, 1], "name" : "TEXCOORD_0"}, {"bufferView" : 0, "byteOffset" : 186048, "componentType" : 5123, "count" : 768, "type" : "SCALAR", "max" : [271], "min" : [0]}, {"bufferView" : 4, "byteOffset" : 0, "componentType" : 5126, "count" : 272, "type" : "VEC3", "max" : [0.5977823138237, 0.04462599754333496, 0.6753613352775574], "min" : [-0.5977823138237, -0.3899936079978943, -0.6125093102455139], "name" : "POSITION"}, {"bufferView" : 4, "byteOffset" : 12, "componentType" : 5126, "count" : 272, "type" : "VEC3", "max" : [0.9894825220108032, 1.0000044107437134, 0.9894824624061584], "min" : [-0.9894824028015137, -1.0000044107437134, -0.9894824624061584], "name" : "NORMAL"}, {"bufferView" : 4, "byteOffset" : 24, "componentType" : 5126, "count" : 272, "type" : "VEC2", "max" : [1, 2], "min" : [0, 1.0099999904632568], "name" : "TEXCOORD_0"}, {"bufferView" : 0, "byteOffset" : 187584, "componentType" : 5123, "count" : 29232, "type" : "SCALAR", "max" : [6003], "min" : [0]}, {"bufferView" : 5, "byteOffset" : 0, "componentType" : 5126, "count" : 6004, "type" : "VEC3", "max" : [0.9429412484169006, 0.552000105381012, 0.9446173906326294], "min" : [-0.9422706365585327, -0.49358096718788147, -0.9442049264907837], "name" : "POSITION"}, {"bufferView" : 5, "byteOffset" : 12, "componentType" : 5126, "count" : 6004, "type" : "VEC3", "max" : [0.9999673366546631, 1.0000042915344238, 0.9999825954437256], "min" : [-0.9999668598175049, -1.0000041723251343, -0.9999818801879883], "name" : "NORMAL"}, {"bufferView" : 5, "byteOffset" : 24, "componentType" : 5126, "count" : 6004, "type" : "VEC2", "max" : [1.0000001192092896, 2], "min" : [0, 1], "name" : "TEXCOORD_0"}], "asset" : {"generator" : "Aspose.3D 24.6.0", "version" : "2.0"}, "buffers" : [{"uri" : "data:application/octet-stream;base64,", "byteLength" : 1100568}], "bufferViews" : [{"buffer" : 0, "byteOffset" : 0, "byteLength" : 246048, "target" : 34963}, {"buffer" : 0, "byteOffset" : 246052, "byteLength" : 39424, "byteStride" : 32, "target" : 34962}, {"buffer" : 0, "byteOffset" : 285480, "byteLength" : 551520, "byteStride" : 32, "target" : 34962}, {"buffer" : 0, "byteOffset" : 837004, "byteLength" : 62720, "byteStride" : 32, "target" : 34962}, {"buffer" : 0, "byteOffset" : 899728, "byteLength" : 8704, "byteStride" : 32, "target" : 34962}, {"buffer" : 0, "byteOffset" : 908436, "byteLength" : 192128, "byteStride" : 32, "target" : 34962}], "materials" : [{"name" : "Material.001", "pbrMetallicRoughness" : {"baseColorFactor" : [0.0022657916442304898, 0.08091015391857498, 0.059709972811299916, 1], "metallicFactor" : 0, "roughnessFactor" : 1}, "emissiveFactor" : [0, 0, 0], "alphaMode" : "OPAQUE", "doubleSided" : true}, {"name" : "Material.001", "pbrMetallicRoughness" : {"baseColorFactor" : [0.0022657916442304898, 0.08091015391857498, 0.059709972811299916, 1], "metallicFactor" : 0, "roughnessFactor" : 1}, "emissiveFactor" : [0, 0, 0], "alphaMode" : "OPAQUE", "doubleSided" : true}, {"name" : "Material.001", "pbrMetallicRoughness" : {"baseColorFactor" : [0.0022657916442304898, 0.08091015391857498, 0.059709972811299916, 1], "metallicFactor" : 0, "roughnessFactor" : 1}, "emissiveFactor" : [0, 0, 0], "alphaMode" : "OPAQUE", "doubleSided" : true}, {"name" : "Material.002", "pbrMetallicRoughness" : {"baseColorFactor" : [0.8, 0.8, 0.8, 1], "metallicFactor" : 1, "roughnessFactor" : 0}, "emissiveFactor" : [0, 0, 0], "alphaMode" : "OPAQUE", "doubleSided" : true}, {"name" : "material_0", "pbrMetallicRoughness" : {"baseColorFactor" : [1, 1, 1, 1], "metallicFactor" : 0, "roughnessFactor" : 0.6}, "emissiveFactor" : [0, 0, 0], "alphaMode" : "OPAQUE", "doubleSided" : true}], "meshes" : [{"primitives" : [{"attributes" : {"POSITION" : 1, "NORMAL" : 2, "TEXCOORD_0" : 3}, "indices" : 0, "material" : 0, "mode" : 4}]}, {"primitives" : [{"attributes" : {"POSITION" : 5, "NORMAL" : 6, "TEXCOORD_0" : 7}, "indices" : 4, "material" : 1, "mode" : 4}]}, {"primitives" : [{"attributes" : {"POSITION" : 9, "NORMAL" : 10, "TEXCOORD_0" : 11}, "indices" : 8, "material" : 2, "mode" : 4}]}, {"primitives" : [{"attributes" : {"POSITION" : 13, "NORMAL" : 14, "TEXCOORD_0" : 15}, "indices" : 12, "material" : 3, "mode" : 4}]}, {"primitives" : [{"attributes" : {"POSITION" : 17, "NORMAL" : 18, "TEXCOORD_0" : 19}, "indices" : 16, "material" : 4, "mode" : 4}]}], "nodes" : [{"mesh" : 0, "name" : "Object_4"}, {"children" : [0], "matrix" : [0.9440000057220459, 0, 0, 0, 0, 1, 0, 0, 0, 0, 1, 0, 0, 0, 0, 1], "name" : "Cube_2"}, {"mesh" : 1, "name" : "Object_6"}, {"children" : [2], "matrix" : [0.9343652129173279, 0, 0, 0, 0, 0.9897936582565308, 0, 0, 0, 0, 0.9897936582565308, 0, 0, 0, 0, 1], "name" : "Cube.001_3"}, {"mesh" : 2, "name" : "Object_8"}, {"children" : [4], "matrix" : [0.8627631664276123, 0, 0, 0, 0, 1.0201667547225952, 0, 0, 0, 0, 0.9139439463615417, 0, 0, 0.2289630025625229, 0.03878900036215782, 1], "name" : "Cube.002_4"}, {"mesh" : 3, "name" : "Object_10"}, {"children" : [6], "matrix" : [1, 0, 0, 0, 0, 1, 0, 0, 0, 0, 1, 0, 0, 0.017458999529480934, 0, 1], "name" : "Cylinder_5"}, {"mesh" : 4, "name" : "Object_12"}, {"children" : [8], "matrix" : [0.3974400644678735, -0.018436719037319135, -0.03744211097014356, 0, 0.030478900558966248, 0.09471688921445061, 0.276887901347139, 0, -0.00469676931766095, -0.335079133436556, 0.11513975644893304, 0, 0.006374012678861618, 0.6778419613838196, -0.47841647267341614, 1], "name" : "Plane_6"}, {"children" : [1, 3, 5, 7, 9], "matrix" : [1, 0, 0, 0, 0, 2.220446049250313E-16, 1, 0, 0, -1, 2.220446049250313E-16, 0, 0, 0, 0, 1], "name" : "GLTF_SceneRootNode"}, {"children" : [10], "name" : "root"}, {"children" : [11], "matrix" : [1, 0, 0, 0, 0, 2.220446049250313E-16, -1, 0, 0, 1, 2.220446049250313E-16, 0, 0, 0, 0, 1], "name" : "Sketchfab_model"}], "scene" : 0, "scenes" : [{"nodes" : [12]}]}