{"accessors" : [{"bufferView" : 0, "byteOffset" : 0, "componentType" : 5123, "count" : 187200, "type" : "SCALAR", "max" : [33189], "min" : [0]}, {"bufferView" : 1, "byteOffset" : 0, "componentType" : 5126, "count" : 33190, "type" : "VEC3", "max" : [347.3515625, 158.56219482421875, 179.03819274902344], "min" : [-294.3828125, -432.750244140625, -255.37109375], "name" : "POSITION"}, {"bufferView" : 1, "byteOffset" : 12, "componentType" : 5126, "count" : 33190, "type" : "VEC3", "max" : [1.0000044107437134, 1.0000044107437134, 1.0000044107437134], "min" : [-1.0000044107437134, -1.0000044107437134, -1.0000044107437134], "name" : "NORMAL"}, {"bufferView" : 1, "byteOffset" : 24, "componentType" : 5126, "count" : 33190, "type" : "VEC2", "max" : [99.53334045410156, 50.766658782958984], "min" : [0, 0.9999881386756897], "name" : "TEXCOORD_0"}, {"bufferView" : 0, "byteOffset" : 374400, "componentType" : 5123, "count" : 114696, "type" : "SCALAR", "max" : [23407], "min" : [0]}, {"bufferView" : 2, "byteOffset" : 0, "componentType" : 5126, "count" : 23408, "type" : "VEC3", "max" : [276.5863342285156, -13.208191871643066, 117.49380493164062], "min" : [-171.50892639160156, -873.052001953125, -119.88375854492188], "name" : "POSITION"}, {"bufferView" : 2, "byteOffset" : 12, "componentType" : 5126, "count" : 23408, "type" : "VEC3", "max" : [0.999989926815033, 1.000003457069397, 0.9999215006828308], "min" : [-0.9999735951423645, -1.0000044107437134, -1.0000030994415283], "name" : "NORMAL"}, {"bufferView" : 2, "byteOffset" : 24, "componentType" : 5126, "count" : 23408, "type" : "VEC2", "max" : [0.9606947898864746, 1.8991626501083374], "min" : [0.0393005907535553, 1.0393050909042358], "name" : "TEXCOORD_0"}, {"bufferView" : 0, "byteOffset" : 603792, "componentType" : 5123, "count" : 16884, "type" : "SCALAR", "max" : [3127], "min" : [0]}, {"bufferView" : 3, "byteOffset" : 0, "componentType" : 5126, "count" : 3128, "type" : "VEC3", "max" : [380, 380, 40], "min" : [-380, -380, 0], "name" : "POSITION"}, {"bufferView" : 3, "byteOffset" : 12, "componentType" : 5126, "count" : 3128, "type" : "VEC3", "max" : [0.9996588230133057, 0.9996588230133057, 0.99964839220047], "min" : [-0.9996588230133057, -0.9996588230133057, -0.9996484518051147], "name" : "NORMAL"}, {"bufferView" : 3, "byteOffset" : 24, "componentType" : 5126, "count" : 3128, "type" : "VEC2", "max" : [1.1809865236282349, 2.291106700897217], "min" : [-0.18098664283752441, 1.5117509365081787], "name" : "TEXCOORD_0"}], "asset" : {"generator" : "Aspose.3D 24.6.0", "version" : "2.0"}, "buffers" : [{"uri" : "data:application/octet-stream;base64,", "byteLength" : 2548808}], "bufferViews" : [{"buffer" : 0, "byteOffset" : 0, "byteLength" : 637560, "target" : 34963}, {"buffer" : 0, "byteOffset" : 637564, "byteLength" : 1062080, "byteStride" : 32, "target" : 34962}, {"buffer" : 0, "byteOffset" : 1699648, "byteLength" : 749056, "byteStride" : 32, "target" : 34962}, {"buffer" : 0, "byteOffset" : 2448708, "byteLength" : 100096, "byteStride" : 32, "target" : 34962}], "materials" : [{"name" : "Mat3d66-1144990-4-4936", "pbrMetallicRoughness" : {"baseColorFactor" : [1, 1, 1, 1], "metallicFactor" : 0, "roughnessFactor" : 0.6}, "emissiveFactor" : [1, 1, 1], "alphaMode" : "OPAQUE", "doubleSided" : true}, {"name" : "material", "pbrMetallicRoughness" : {"baseColorFactor" : [0.008329261933796989, 0.008329261933796989, 0.008329261933796989, 1], "metallicFactor" : 0.4444444444444444, "roughnessFactor" : 0.3218390804597701}, "emissiveFactor" : [0, 0, 0], "alphaMode" : "OPAQUE", "doubleSided" : true}, {"name" : "material", "pbrMetallicRoughness" : {"baseColorFactor" : [0.008329261933796989, 0.008329261933796989, 0.008329261933796989, 1], "metallicFactor" : 0.4444444444444444, "roughnessFactor" : 0.3218390804597701}, "emissiveFactor" : [0, 0, 0], "alphaMode" : "OPAQUE", "doubleSided" : true}], "meshes" : [{"primitives" : [{"attributes" : {"POSITION" : 1, "NORMAL" : 2, "TEXCOORD_0" : 3}, "indices" : 0, "material" : 0, "mode" : 4}]}, {"primitives" : [{"attributes" : {"POSITION" : 5, "NORMAL" : 6, "TEXCOORD_0" : 7}, "indices" : 4, "material" : 1, "mode" : 4}]}, {"primitives" : [{"attributes" : {"POSITION" : 9, "NORMAL" : 10, "TEXCOORD_0" : 11}, "indices" : 8, "material" : 2, "mode" : 4}]}], "nodes" : [{"mesh" : 0, "name" : "34_Mat3d66-1144990-4-4936_0"}, {"children" : [0], "matrix" : [0.7310046220749421, -0.2220104118645929, -1.0245691242930817E-07, 0, 3.539956251181742E-08, -2.3601218466002924E-07, 0.7639738917350397, 0, -0.22201041186461373, -0.7310046220749112, -2.1553999182331476E-07, 0, 60.712890625, -59.154296875, 686.844482421875, 1], "name" : "34"}, {"mesh" : 1, "name" : "25_019_0"}, {"children" : [2], "matrix" : [1.5052885628484134, -0.45716233885319046, 4.366447894778773E-17, 0, -2.412701923143563E-07, -7.944251530145238E-07, 1.7858306169507958, 0, -0.4861010228453526, -1.6005743428331796, -7.776875315375707E-07, 0, -98.818359375, 15.146484375, 782.02587890625, 1], "name" : "25"}, {"mesh" : 2, "name" : "2_019_0"}, {"children" : [4], "matrix" : [0.22627102469655183, 0.745033831921009, 6.162975822039159E-33, 0, -0.745033831921009, 0.22627102469655183, 1.54074395550979E-33, 0, -3.16703119612376E-34, -6.344749774139107E-33, 0.7786358594894409, 0, -21.501953125, 0, -807.9818115234375, 1], "name" : "2"}, {"children" : [1, 3, 5], "matrix" : [1, 0, 0, 0, 0, 2.220446049250313E-16, -1, 0, 0, 1, 2.220446049250313E-16, 0, -13794.298828125, 787.830810546875, 575.19677734375, 1], "name" : "Group032"}, {"children" : [6], "name" : "RootNode"}, {"children" : [7], "matrix" : [0.0010000000474974513, 0, 0, 0, 0, 0, 0.0010000000474974513, 0, 0, -0.0010000000474974513, 0, 0, 0, 0, 0, 1], "name" : "35598db83e5f4eeba64ed75d235e2e90.fbx"}, {"children" : [8], "matrix" : [1.0209745168685913, 0, 0, 0, 0, 2.2670188323661107E-16, -1.0209745168685913, 0, 0, 1.0209745168685913, 2.2670188323661107E-16, 0, 0, 0, 0, 1], "name" : "Sketchfab_model"}], "scene" : 0, "scenes" : [{"nodes" : [9]}]}