{"accessors" : [{"bufferView" : 0, "byteOffset" : 0, "componentType" : 5123, "count" : 36864, "type" : "SCALAR", "max" : [7149], "min" : [0]}, {"bufferView" : 1, "byteOffset" : 0, "componentType" : 5126, "count" : 7150, "type" : "VEC3", "max" : [0.07906249910593033, 0.07388836145401001, 0.04784910008311272], "min" : [-0.0687142163515091, -0.07388835400342941, -0.0004143602855037898], "name" : "POSITION"}, {"bufferView" : 1, "byteOffset" : 12, "componentType" : 5126, "count" : 7150, "type" : "VEC3", "max" : [0.9771847128868103, 0.9771847128868103, 1.0000044107437134], "min" : [-0.9771847128868103, -0.9771847128868103, -1.0000044107437134], "name" : "NORMAL"}, {"bufferView" : 1, "byteOffset" : 24, "componentType" : 5126, "count" : 7150, "type" : "VEC2", "max" : [1.0000001192092896, 2.000000238418579], "min" : [0, 1.5], "name" : "TEXCOORD_0"}, {"bufferView" : 0, "byteOffset" : 73728, "componentType" : 5123, "count" : 10644, "type" : "SCALAR", "max" : [2088], "min" : [0]}, {"bufferView" : 2, "byteOffset" : 0, "componentType" : 5126, "count" : 2089, "type" : "VEC3", "max" : [0.08928114175796509, 0.003664473071694374, 0.30536088347435], "min" : [-0.07839713245630264, -0.007126885931938887, 0.03277771174907684], "name" : "POSITION"}, {"bufferView" : 2, "byteOffset" : 12, "componentType" : 5126, "count" : 2089, "type" : "VEC3", "max" : [0.9974361658096313, 0.9991222620010376, 0.9944426417350769], "min" : [-0.997410774230957, -0.9992251396179199, -0.9944316148757935], "name" : "NORMAL"}, {"bufferView" : 2, "byteOffset" : 24, "componentType" : 5126, "count" : 2089, "type" : "VEC2", "max" : [1, 2], "min" : [0, 1], "name" : "TEXCOORD_0"}, {"bufferView" : 0, "byteOffset" : 95016, "componentType" : 5123, "count" : 7188, "type" : "SCALAR", "max" : [1500], "min" : [0]}, {"bufferView" : 3, "byteOffset" : 0, "componentType" : 5126, "count" : 1501, "type" : "VEC3", "max" : [0.031465739011764526, 0.043539922684431076, -0.020343894138932228], "min" : [-0.05806524679064751, -0.06371769309043884, -0.06163459271192551], "name" : "POSITION"}, {"bufferView" : 3, "byteOffset" : 12, "componentType" : 5126, "count" : 1501, "type" : "VEC3", "max" : [0.9983717799186707, 0.9984166622161865, 0.9994795322418213], "min" : [-0.9984685182571411, -0.9987978339195251, -0.9997473955154419], "name" : "NORMAL"}, {"bufferView" : 3, "byteOffset" : 24, "componentType" : 5126, "count" : 1501, "type" : "VEC2", "max" : [1, 2], "min" : [0, 1], "name" : "TEXCOORD_0"}, {"bufferView" : 0, "byteOffset" : 109392, "componentType" : 5123, "count" : 2880, "type" : "SCALAR", "max" : [558], "min" : [0]}, {"bufferView" : 4, "byteOffset" : 0, "componentType" : 5126, "count" : 559, "type" : "VEC3", "max" : [0.010000001639127731, 0.009999999776482582, 0.009999999776482582], "min" : [-0.009999995119869709, -0.010000001639127731, -0.009999999776482582], "name" : "POSITION"}, {"bufferView" : 4, "byteOffset" : 12, "componentType" : 5126, "count" : 559, "type" : "VEC3", "max" : [1.0000044107437134, 1.0000044107437134, 1.0000044107437134], "min" : [-1.0000044107437134, -1.0000044107437134, -1.0000044107437134], "name" : "NORMAL"}, {"bufferView" : 4, "byteOffset" : 24, "componentType" : 5126, "count" : 559, "type" : "VEC2", "max" : [1.000000238418579, 2], "min" : [0, 1], "name" : "TEXCOORD_0"}, {"bufferView" : 0, "byteOffset" : 115152, "componentType" : 5123, "count" : 7296, "type" : "SCALAR", "max" : [1746], "min" : [0]}, {"bufferView" : 5, "byteOffset" : 0, "componentType" : 5126, "count" : 1747, "type" : "VEC3", "max" : [0.01643740013241768, 0.01643740013241768, 0.024662312120199203], "min" : [-0.01643740013241768, -0.01643740013241768, 0.014889154583215714], "name" : "POSITION"}, {"bufferView" : 5, "byteOffset" : 12, "componentType" : 5126, "count" : 1747, "type" : "VEC3", "max" : [0.9912763833999634, 0.9912763833999634, 1.0000044107437134], "min" : [-0.9912763833999634, -0.9912763833999634, -1.0000044107437134], "name" : "NORMAL"}, {"bufferView" : 5, "byteOffset" : 24, "componentType" : 5126, "count" : 1747, "type" : "VEC2", "max" : [0.8750001192092896, 2], "min" : [0.1250000149011612, 1], "name" : "TEXCOORD_0"}, {"bufferView" : 0, "byteOffset" : 129744, "componentType" : 5123, "count" : 7188, "type" : "SCALAR", "max" : [1500], "min" : [0]}, {"bufferView" : 6, "byteOffset" : 0, "componentType" : 5126, "count" : 1501, "type" : "VEC3", "max" : [0.01620580442249775, 0.02992021106183529, 0.008472947403788567], "min" : [-0.0426042303442955, -0.041687898337841034, -0.004560031928122044], "name" : "POSITION"}, {"bufferView" : 6, "byteOffset" : 12, "componentType" : 5126, "count" : 1501, "type" : "VEC3", "max" : [0.9998829364776611, 0.9994692802429199, 0.9999994039535522], "min" : [-0.9998918771743774, -0.9994714260101318, -0.9999995231628418], "name" : "NORMAL"}, {"bufferView" : 6, "byteOffset" : 24, "componentType" : 5126, "count" : 1501, "type" : "VEC2", "max" : [1, 2], "min" : [0, 1], "name" : "TEXCOORD_0"}, {"bufferView" : 0, "byteOffset" : 144120, "componentType" : 5123, "count" : 2880, "type" : "SCALAR", "max" : [558], "min" : [0]}, {"bufferView" : 7, "byteOffset" : 0, "componentType" : 5126, "count" : 559, "type" : "VEC3", "max" : [0.010000001639127731, 0.009999999776482582, 0.009999999776482582], "min" : [-0.009999995119869709, -0.010000001639127731, -0.009999999776482582], "name" : "POSITION"}, {"bufferView" : 7, "byteOffset" : 12, "componentType" : 5126, "count" : 559, "type" : "VEC3", "max" : [1.0000044107437134, 1.0000044107437134, 1.0000044107437134], "min" : [-1.0000044107437134, -1.0000044107437134, -1.0000044107437134], "name" : "NORMAL"}, {"bufferView" : 7, "byteOffset" : 24, "componentType" : 5126, "count" : 559, "type" : "VEC2", "max" : [1.000000238418579, 2], "min" : [0, 1], "name" : "TEXCOORD_0"}, {"bufferView" : 0, "byteOffset" : 149880, "componentType" : 5123, "count" : 7296, "type" : "SCALAR", "max" : [1746], "min" : [0]}, {"bufferView" : 8, "byteOffset" : 0, "componentType" : 5126, "count" : 1747, "type" : "VEC3", "max" : [0.01643740013241768, 0.01643740013241768, 0.024662312120199203], "min" : [-0.01643740013241768, -0.01643740013241768, 0.014889154583215714], "name" : "POSITION"}, {"bufferView" : 8, "byteOffset" : 12, "componentType" : 5126, "count" : 1747, "type" : "VEC3", "max" : [0.9912763833999634, 0.9912763833999634, 1.0000044107437134], "min" : [-0.9912763833999634, -0.9912763833999634, -1.0000044107437134], "name" : "NORMAL"}, {"bufferView" : 8, "byteOffset" : 24, "componentType" : 5126, "count" : 1747, "type" : "VEC2", "max" : [0.8750001192092896, 2], "min" : [0.1250000149011612, 1], "name" : "TEXCOORD_0"}, {"bufferView" : 0, "byteOffset" : 164472, "componentType" : 5123, "count" : 2880, "type" : "SCALAR", "max" : [558], "min" : [0]}, {"bufferView" : 9, "byteOffset" : 0, "componentType" : 5126, "count" : 559, "type" : "VEC3", "max" : [0.010000001639127731, 0.009999999776482582, 0.009999999776482582], "min" : [-0.009999995119869709, -0.010000001639127731, -0.009999999776482582], "name" : "POSITION"}, {"bufferView" : 9, "byteOffset" : 12, "componentType" : 5126, "count" : 559, "type" : "VEC3", "max" : [1.0000044107437134, 1.0000044107437134, 1.0000044107437134], "min" : [-1.0000044107437134, -1.0000044107437134, -1.0000044107437134], "name" : "NORMAL"}, {"bufferView" : 9, "byteOffset" : 24, "componentType" : 5126, "count" : 559, "type" : "VEC2", "max" : [1.000000238418579, 2], "min" : [0, 1], "name" : "TEXCOORD_0"}, {"bufferView" : 0, "byteOffset" : 170232, "componentType" : 5123, "count" : 7296, "type" : "SCALAR", "max" : [1746], "min" : [0]}, {"bufferView" : 10, "byteOffset" : 0, "componentType" : 5126, "count" : 1747, "type" : "VEC3", "max" : [0.01643740013241768, 0.01643740013241768, 0.024662312120199203], "min" : [-0.01643740013241768, -0.01643740013241768, 0.014889154583215714], "name" : "POSITION"}, {"bufferView" : 10, "byteOffset" : 12, "componentType" : 5126, "count" : 1747, "type" : "VEC3", "max" : [0.9912763833999634, 0.9912763833999634, 1.0000044107437134], "min" : [-0.9912763833999634, -0.9912763833999634, -1.0000044107437134], "name" : "NORMAL"}, {"bufferView" : 10, "byteOffset" : 24, "componentType" : 5126, "count" : 1747, "type" : "VEC2", "max" : [0.8750001192092896, 2], "min" : [0.1250000149011612, 1], "name" : "TEXCOORD_0"}, {"bufferView" : 0, "byteOffset" : 184824, "componentType" : 5123, "count" : 4608, "type" : "SCALAR", "max" : [911], "min" : [0]}, {"bufferView" : 11, "byteOffset" : 0, "componentType" : 5126, "count" : 912, "type" : "VEC3", "max" : [0.21813976764678955, 0.03012458048760891, 0.02001812681555748], "min" : [-0.0014255429850891232, -0.029521342366933823, -0.0023989914916455746], "name" : "POSITION"}, {"bufferView" : 11, "byteOffset" : 12, "componentType" : 5126, "count" : 912, "type" : "VEC3", "max" : [0.9765973091125488, 0.9820181131362915, 0.9999879598617554], "min" : [-0.9792687892913818, -0.997389018535614, -0.999997615814209], "name" : "NORMAL"}, {"bufferView" : 11, "byteOffset" : 24, "componentType" : 5126, "count" : 912, "type" : "VEC2", "max" : [1.000000238418579, 2.000000238418579], "min" : [0, 1], "name" : "TEXCOORD_0"}, {"bufferView" : 0, "byteOffset" : 194040, "componentType" : 5123, "count" : 4608, "type" : "SCALAR", "max" : [911], "min" : [0]}, {"bufferView" : 12, "byteOffset" : 0, "componentType" : 5126, "count" : 912, "type" : "VEC3", "max" : [0.21813976764678955, 0.03012458048760891, 0.02001812681555748], "min" : [-0.0014255429850891232, -0.029521342366933823, -0.0023989914916455746], "name" : "POSITION"}, {"bufferView" : 12, "byteOffset" : 12, "componentType" : 5126, "count" : 912, "type" : "VEC3", "max" : [0.9765973091125488, 0.9820181131362915, 0.9999879598617554], "min" : [-0.9792687892913818, -0.997389018535614, -0.999997615814209], "name" : "NORMAL"}, {"bufferView" : 12, "byteOffset" : 24, "componentType" : 5126, "count" : 912, "type" : "VEC2", "max" : [1.000000238418579, 2.000000238418579], "min" : [0, 1], "name" : "TEXCOORD_0"}, {"bufferView" : 0, "byteOffset" : 203256, "componentType" : 5123, "count" : 4608, "type" : "SCALAR", "max" : [911], "min" : [0]}, {"bufferView" : 13, "byteOffset" : 0, "componentType" : 5126, "count" : 912, "type" : "VEC3", "max" : [0.21813976764678955, 0.03012458048760891, 0.02001812681555748], "min" : [-0.0014255429850891232, -0.029521342366933823, -0.0023989914916455746], "name" : "POSITION"}, {"bufferView" : 13, "byteOffset" : 12, "componentType" : 5126, "count" : 912, "type" : "VEC3", "max" : [0.9765973091125488, 0.9820181131362915, 0.9999879598617554], "min" : [-0.9792687892913818, -0.997389018535614, -0.999997615814209], "name" : "NORMAL"}, {"bufferView" : 13, "byteOffset" : 24, "componentType" : 5126, "count" : 912, "type" : "VEC2", "max" : [1.000000238418579, 2.000000238418579], "min" : [0, 1], "name" : "TEXCOORD_0"}, {"bufferView" : 0, "byteOffset" : 212472, "componentType" : 5123, "count" : 4608, "type" : "SCALAR", "max" : [911], "min" : [0]}, {"bufferView" : 14, "byteOffset" : 0, "componentType" : 5126, "count" : 912, "type" : "VEC3", "max" : [0.21813976764678955, 0.03012458048760891, 0.02001812681555748], "min" : [-0.0014255429850891232, -0.029521342366933823, -0.0023989914916455746], "name" : "POSITION"}, {"bufferView" : 14, "byteOffset" : 12, "componentType" : 5126, "count" : 912, "type" : "VEC3", "max" : [0.9765973091125488, 0.9820181131362915, 0.9999879598617554], "min" : [-0.9792687892913818, -0.997389018535614, -0.999997615814209], "name" : "NORMAL"}, {"bufferView" : 14, "byteOffset" : 24, "componentType" : 5126, "count" : 912, "type" : "VEC2", "max" : [1.000000238418579, 2.000000238418579], "min" : [0, 1], "name" : "TEXCOORD_0"}], "asset" : {"generator" : "Aspose.3D 24.6.0", "version" : "2.0"}, "buffers" : [{"uri" : "data:application/octet-stream;base64,", "byteLength" : 951572}], "bufferViews" : [{"buffer" : 0, "byteOffset" : 0, "byteLength" : 221688, "target" : 34963}, {"buffer" : 0, "byteOffset" : 221692, "byteLength" : 228800, "byteStride" : 32, "target" : 34962}, {"buffer" : 0, "byteOffset" : 450496, "byteLength" : 66848, "byteStride" : 32, "target" : 34962}, {"buffer" : 0, "byteOffset" : 517348, "byteLength" : 48032, "byteStride" : 32, "target" : 34962}, {"buffer" : 0, "byteOffset" : 565384, "byteLength" : 17888, "byteStride" : 32, "target" : 34962}, {"buffer" : 0, "byteOffset" : 583276, "byteLength" : 55904, "byteStride" : 32, "target" : 34962}, {"buffer" : 0, "byteOffset" : 639184, "byteLength" : 48032, "byteStride" : 32, "target" : 34962}, {"buffer" : 0, "byteOffset" : 687220, "byteLength" : 17888, "byteStride" : 32, "target" : 34962}, {"buffer" : 0, "byteOffset" : 705112, "byteLength" : 55904, "byteStride" : 32, "target" : 34962}, {"buffer" : 0, "byteOffset" : 761020, "byteLength" : 17888, "byteStride" : 32, "target" : 34962}, {"buffer" : 0, "byteOffset" : 778912, "byteLength" : 55904, "byteStride" : 32, "target" : 34962}, {"buffer" : 0, "byteOffset" : 834820, "byteLength" : 29184, "byteStride" : 32, "target" : 34962}, {"buffer" : 0, "byteOffset" : 864008, "byteLength" : 29184, "byteStride" : 32, "target" : 34962}, {"buffer" : 0, "byteOffset" : 893196, "byteLength" : 29184, "byteStride" : 32, "target" : 34962}, {"buffer" : 0, "byteOffset" : 922384, "byteLength" : 29184, "byteStride" : 32, "target" : 34962}], "materials" : [{"name" : "green_paint", "pbrMetallicRoughness" : {"baseColorFactor" : [0.06067309999999999, 0.151216, 0.02690940000000001, 1], "metallicFactor" : 0, "roughnessFactor" : 0.15922605475803953}, "emissiveFactor" : [0, 0, 0], "alphaMode" : "OPAQUE", "doubleSided" : true}, {"name" : "green_paint", "pbrMetallicRoughness" : {"baseColorFactor" : [0.06067309999999999, 0.151216, 0.02690940000000001, 1], "metallicFactor" : 0, "roughnessFactor" : 0.15922605475803953}, "emissiveFactor" : [0, 0, 0], "alphaMode" : "OPAQUE", "doubleSided" : true}, {"name" : "green_paint", "pbrMetallicRoughness" : {"baseColorFactor" : [0.06067309999999999, 0.151216, 0.02690940000000001, 1], "metallicFactor" : 0, "roughnessFactor" : 0.15922605475803953}, "emissiveFactor" : [0, 0, 0], "alphaMode" : "OPAQUE", "doubleSided" : true}, {"name" : "Lamp", "pbrMetallicRoughness" : {"baseColorFactor" : [0.8, 0.8, 0.8, 1], "metallicFactor" : 0, "roughnessFactor" : 0.8040408205773457}, "emissiveFactor" : [1, 1, 0.4755226058588434], "alphaMode" : "OPAQUE", "doubleSided" : true}, {"name" : "green_paint", "pbrMetallicRoughness" : {"baseColorFactor" : [0.06067309999999999, 0.151216, 0.02690940000000001, 1], "metallicFactor" : 0, "roughnessFactor" : 0.15922605475803953}, "emissiveFactor" : [0, 0, 0], "alphaMode" : "OPAQUE", "doubleSided" : true}, {"name" : "green_paint", "pbrMetallicRoughness" : {"baseColorFactor" : [0.06067309999999999, 0.151216, 0.02690940000000001, 1], "metallicFactor" : 0, "roughnessFactor" : 0.15922605475803953}, "emissiveFactor" : [0, 0, 0], "alphaMode" : "OPAQUE", "doubleSided" : true}, {"name" : "Lamp", "pbrMetallicRoughness" : {"baseColorFactor" : [0.8, 0.8, 0.8, 1], "metallicFactor" : 0, "roughnessFactor" : 0.8040408205773457}, "emissiveFactor" : [1, 1, 0.4755226058588434], "alphaMode" : "OPAQUE", "doubleSided" : true}, {"name" : "green_paint", "pbrMetallicRoughness" : {"baseColorFactor" : [0.06067309999999999, 0.151216, 0.02690940000000001, 1], "metallicFactor" : 0, "roughnessFactor" : 0.15922605475803953}, "emissiveFactor" : [0, 0, 0], "alphaMode" : "OPAQUE", "doubleSided" : true}, {"name" : "Lamp", "pbrMetallicRoughness" : {"baseColorFactor" : [0.8, 0.8, 0.8, 1], "metallicFactor" : 0, "roughnessFactor" : 0.8040408205773457}, "emissiveFactor" : [1, 1, 0.4755226058588434], "alphaMode" : "OPAQUE", "doubleSided" : true}, {"name" : "green_paint", "pbrMetallicRoughness" : {"baseColorFactor" : [0.06067309999999999, 0.151216, 0.02690940000000001, 1], "metallicFactor" : 0, "roughnessFactor" : 0.15922605475803953}, "emissiveFactor" : [0, 0, 0], "alphaMode" : "OPAQUE", "doubleSided" : true}, {"name" : "green_paint", "pbrMetallicRoughness" : {"baseColorFactor" : [0.06067309999999999, 0.151216, 0.02690940000000001, 1], "metallicFactor" : 0, "roughnessFactor" : 0.15922605475803953}, "emissiveFactor" : [0, 0, 0], "alphaMode" : "OPAQUE", "doubleSided" : true}, {"name" : "green_paint", "pbrMetallicRoughness" : {"baseColorFactor" : [0.06067309999999999, 0.151216, 0.02690940000000001, 1], "metallicFactor" : 0, "roughnessFactor" : 0.15922605475803953}, "emissiveFactor" : [0, 0, 0], "alphaMode" : "OPAQUE", "doubleSided" : true}, {"name" : "green_paint", "pbrMetallicRoughness" : {"baseColorFactor" : [0.06067309999999999, 0.151216, 0.02690940000000001, 1], "metallicFactor" : 0, "roughnessFactor" : 0.15922605475803953}, "emissiveFactor" : [0, 0, 0], "alphaMode" : "OPAQUE", "doubleSided" : true}, {"name" : "green_paint", "pbrMetallicRoughness" : {"baseColorFactor" : [0.06067309999999999, 0.151216, 0.02690940000000001, 1], "metallicFactor" : 0, "roughnessFactor" : 0.15922605475803953}, "emissiveFactor" : [0, 0, 0], "alphaMode" : "OPAQUE", "doubleSided" : true}], "meshes" : [{"primitives" : [{"attributes" : {"POSITION" : 1, "NORMAL" : 2, "TEXCOORD_0" : 3}, "indices" : 0, "material" : 0, "mode" : 4}]}, {"primitives" : [{"attributes" : {"POSITION" : 5, "NORMAL" : 6, "TEXCOORD_0" : 7}, "indices" : 4, "material" : 1, "mode" : 4}]}, {"primitives" : [{"attributes" : {"POSITION" : 9, "NORMAL" : 10, "TEXCOORD_0" : 11}, "indices" : 8, "material" : 2, "mode" : 4}]}, {"primitives" : [{"attributes" : {"POSITION" : 13, "NORMAL" : 14, "TEXCOORD_0" : 15}, "indices" : 12, "material" : 3, "mode" : 4}]}, {"primitives" : [{"attributes" : {"POSITION" : 17, "NORMAL" : 18, "TEXCOORD_0" : 19}, "indices" : 16, "material" : 4, "mode" : 4}]}, {"primitives" : [{"attributes" : {"POSITION" : 21, "NORMAL" : 22, "TEXCOORD_0" : 23}, "indices" : 20, "material" : 5, "mode" : 4}]}, {"primitives" : [{"attributes" : {"POSITION" : 25, "NORMAL" : 26, "TEXCOORD_0" : 27}, "indices" : 24, "material" : 6, "mode" : 4}]}, {"primitives" : [{"attributes" : {"POSITION" : 29, "NORMAL" : 30, "TEXCOORD_0" : 31}, "indices" : 28, "material" : 7, "mode" : 4}]}, {"primitives" : [{"attributes" : {"POSITION" : 33, "NORMAL" : 34, "TEXCOORD_0" : 35}, "indices" : 32, "material" : 8, "mode" : 4}]}, {"primitives" : [{"attributes" : {"POSITION" : 37, "NORMAL" : 38, "TEXCOORD_0" : 39}, "indices" : 36, "material" : 9, "mode" : 4}]}, {"primitives" : [{"attributes" : {"POSITION" : 41, "NORMAL" : 42, "TEXCOORD_0" : 43}, "indices" : 40, "material" : 10, "mode" : 4}]}, {"primitives" : [{"attributes" : {"POSITION" : 45, "NORMAL" : 46, "TEXCOORD_0" : 47}, "indices" : 44, "material" : 11, "mode" : 4}]}, {"primitives" : [{"attributes" : {"POSITION" : 49, "NORMAL" : 50, "TEXCOORD_0" : 51}, "indices" : 48, "material" : 12, "mode" : 4}]}, {"primitives" : [{"attributes" : {"POSITION" : 53, "NORMAL" : 54, "TEXCOORD_0" : 55}, "indices" : 52, "material" : 13, "mode" : 4}]}], "nodes" : [{"mesh" : 0, "name" : "Base_green_paint_0"}, {"mesh" : 1, "name" : "strand1_green_paint_0"}, {"mesh" : 2, "name" : "strand3_green_paint_0"}, {"mesh" : 3, "name" : "bulb2_Lamp_0"}, {"children" : [3], "matrix" : [-8.260181830788302E-08, 1.8897092672062636, -0.9875460844564071, 0, 5.0034121943598103E-08, 0.9875460844564092, 1.8897092672062636, 0, 2.132193088531492, 5.0034116348859526E-08, -8.260180907147471E-08, 0, -0.018216460943222046, -0.058072738349437714, -0.04325636848807335, 1], "name" : "bulb2"}, {"mesh" : 4, "name" : "flowerb2_green_paint_0"}, {"children" : [5], "matrix" : [-0.19468454870507657, 0.980740730601614, 0.01566990218580666, 0, 0.2626207485842826, 0.036726611078211624, 0.9641999265980788, 0, 0.9450546380546109, 0.1918300690134941, -0.26471296854092063, 0, -0.018216460943222046, -0.058072738349437714, -0.04325636848807335, 1], "name" : "flowerb2"}, {"children" : [2, 4, 6], "matrix" : [7.549789948768648E-08, 0, 0.9999999999999971, 0, 0.8862750334812394, 0.4631595874495279, -6.691190344533256E-08, 0, -0.46315958744952657, 0.8862750334812419, 3.4967576117555464E-08, 0, 0.03367704898118973, -9.313225746154785E-10, 0.23273788392543793, 1], "name" : "strand3"}, {"mesh" : 5, "name" : "strand2_green_paint_0"}, {"mesh" : 6, "name" : "bulb3_Lamp_0"}, {"children" : [9], "matrix" : [0.7922354084841781, 1.3760925075509833, 1.4230182190317797, 0, 0.5031340444045507, -1.622390009130296, 1.288780499202926, 0, 1.9145408730715572, -0.14306798331271903, -0.9275301419742141, 0, -0.0198120828717947, -0.03683192655444145, 0.004849091172218323, 1], "name" : "bulb3"}, {"mesh" : 7, "name" : "flowerb3_green_paint_0"}, {"children" : [11], "matrix" : [-0.28732519603739387, 0.9477074820431198, 0.1389064383682657, 0, 0.09839478665880025, -0.11505045017535354, 0.9884745114937552, 0, 0.9527658250395363, 0.29768126667531697, -0.060192575184244035, 0, -0.01981208100914955, -0.036831919103860855, 0.004849094897508621, 1], "name" : "flowerb3"}, {"children" : [8, 10, 12], "matrix" : [0.37155879415207377, 0.2359702698039085, 0.8979209180365727, 0, 0.6453884735110226, -0.7609017317586306, -0.06709897812805371, 0, 0.6673963368836348, 0.6044391341094625, -0.43501229992944174, 0, 0.02425011806190014, 0.024279003962874413, 0.1612662523984909, 1], "name" : "strand2"}, {"mesh" : 8, "name" : "bulb1_Lamp_0"}, {"children" : [14], "matrix" : [2.1321930885314933, -5.960464388721221E-08, 1.515014670944692E-14, 0, 5.960464388721221E-08, 2.1321930885314933, 1.0852609636695725E-21, 0, -1.5150146709446946E-14, -6.617443955347695E-22, 2.132193088531494, 0, -0.07399968057870865, -0.000767245888710022, 0.22678981721401215, 1], "name" : "bulb1"}, {"mesh" : 9, "name" : "flowerb1_green_paint_0"}, {"children" : [16], "matrix" : [0.9900427216251488, 3.108280854924315E-10, -0.14076721691170854, 0, 3.108280449369793E-10, 1, 4.3942129611558205E-09, 0, 0.14076721691170854, -4.394212958287099E-09, 0.9900427216251488, 0, -0.07399968057870865, -0.000767245888710022, 0.22678981721401215, 1], "name" : "flowerb1"}, {"mesh" : 10, "name" : "Leave0_green_paint_0"}, {"children" : [18], "matrix" : [0.7330907683177966, 0.4552740381738408, 0.505275643161341, 0, -0.5613853356343226, 0.8244479756333691, 0.07163742876103626, 0, -0.3839588425505187, -0.3361710942520758, 0.8599794198797015, 0, -0.017898602411150932, -0.0010044560767710209, 0.07072055339813232, 1], "name" : "Leave0"}, {"mesh" : 11, "name" : "Leave1_green_paint_0"}, {"children" : [20], "matrix" : [0.5771545133808905, -0.2914234766035821, 0.26900302608406107, 0, 0.31564026333584694, 0.6251150511988256, -4.057311014052123E-09, 0, -0.2401280598007358, 0.12124821904024595, 0.6465561877127061, 0, -1.1641532182693481E-10, -0.0021808629389852285, 0.10146934539079666, 1], "name" : "Leave1"}, {"mesh" : 12, "name" : "Leave2_green_paint_0"}, {"children" : [22], "matrix" : [0.3021657406740098, 0.11834595390961473, 0.4958640589262885, 0, -0.26251077979715304, 0.5302477646380299, 0.033414574820501655, 0, -0.4370068599895049, -0.23669105001482327, 0.3227899395870875, 0, 0.07993067055940628, -0.00487397238612175, 0.17909976840019226, 1], "name" : "Leave2"}, {"mesh" : 13, "name" : "Leave3_green_paint_0"}, {"children" : [24], "matrix" : [-0.2525476035448697, 0.22111760424147348, 0.072909967968783, 0, 0.23175221094689585, 0.24906542219781264, 0.04739703131637387, 0, -0.022355561783267853, 0.08403911099253258, -0.33230532277684216, 0, -0.0009850149508565664, -0.0013608068693429232, 0.3040672242641449, 1], "name" : "Leave3"}, {"children" : [1, 7, 13, 15, 17, 19, 21, 23, 25], "matrix" : [1, 0, 0, 0, 0, 1, 6.617444900424223E-24, 0, 0, -6.61744450599377E-24, 0.9999999403953552, 0, 0, 0, 0, 1], "name" : "strand1"}, {"children" : [0, 26], "matrix" : [83.27131250780253, 0, 55.37046607378241, 0, 55.37046607378235, -4.371139006309477E-06, -83.27131250780246, 0, 2.420320033280632E-06, 99.99999999999991, -3.6399048219948327E-06, 0, 0, 0, 0, 1], "name" : "Base"}, {"children" : [27], "name" : "RootNode"}, {"children" : [28], "matrix" : [1, 0, 0, 0, 0, 0, 1, 0, 0, -1, 0, 0, 0, 0, 0, 1], "name" : "83a4aafe5a784a4eaa39bc2a7852993d.fbx"}, {"children" : [29], "matrix" : [0.009999999776482582, 0, 0, 0, 0, 2.2204459996194763E-18, -0.009999999776482582, 0, 0, 0.009999999776482582, 2.2204459996194763E-18, 0, 0, 0, 0, 1], "name" : "Sketchfab_model"}], "scene" : 0, "scenes" : [{"nodes" : [30]}]}