{"extensionsUsed" : ["KHR_materials_pbrSpecularGlossiness"], "extensionsRequired" : ["KHR_materials_pbrSpecularGlossiness"], "accessors" : [{"bufferView" : 0, "byteOffset" : 0, "componentType" : 5123, "count" : 1365, "type" : "SCALAR", "max" : [750], "min" : [0]}, {"bufferView" : 1, "byteOffset" : 0, "componentType" : 5126, "count" : 751, "type" : "VEC3", "max" : [0.4006367623806, 2.0450758934020996, 1.119120717048645], "min" : [-0.33312201499938965, -2.0450758934020996, -1.4095944166183472], "name" : "POSITION"}, {"bufferView" : 1, "byteOffset" : 12, "componentType" : 5126, "count" : 751, "type" : "VEC3", "max" : [1.0000044107437134, 1.0000044107437134, 1.0000044107437134], "min" : [-1.0000044107437134, -1.0000044107437134, -1.0000044107437134], "name" : "NORMAL"}, {"bufferView" : 1, "byteOffset" : 24, "componentType" : 5126, "count" : 751, "type" : "VEC2", "max" : [0.9902817010879517, 1.9805388450622559], "min" : [0.009351149201393127, 1.006924033164978], "name" : "TEXCOORD_0"}], "asset" : {"generator" : "Aspose.3D 24.6.0", "version" : "2.0"}, "buffers" : [{"uri" : "data:application/octet-stream;base64,", "byteLength" : 26772}], "bufferViews" : [{"buffer" : 0, "byteOffset" : 0, "byteLength" : 2732, "target" : 34963}, {"buffer" : 0, "byteOffset" : 2736, "byteLength" : 24032, "byteStride" : 32, "target" : 34962}], "images" : [{"uri" : "data:image/png;base64,"}, {"uri" : "data:image/png;base64,"}], "materials" : [{"name" : "", "extensions" : {"KHR_materials_pbrSpecularGlossiness" : {"diffuseFactor" : [1, 1, 1, 1], "diffuseTexture" : {"index" : 0, "texCoord" : 0}, "specularFactor" : [0, 0, 0], "glossinessFactor" : 1, "specularGlossinessTexture" : {"index" : 1, "texCoord" : 0, "scale" : 1}}}, "pbrMetallicRoughness" : {"baseColorFactor" : [0, 0, 0, 1], "metallicFactor" : 0, "roughnessFactor" : 0}, "emissiveFactor" : [0, 0, 0], "alphaMode" : "OPAQUE", "doubleSided" : true}], "meshes" : [{"primitives" : [{"attributes" : {"POSITION" : 1, "NORMAL" : 2, "TEXCOORD_0" : 3}, "indices" : 0, "material" : 0, "mode" : 4}]}], "nodes" : [{"mesh" : 0, "name" : "Cube__0"}, {"children" : [0], "matrix" : [100, 0, 0, 0, 0, -1.629206793918314E-05, -99.99999999999868, 0, 0, 99.99999999999868, -1.629206793918314E-05, 0, 4.1287126541137695, 141.4470977783203, -1.1551271677017212, 1], "name" : "Cube"}, {"children" : [1], "name" : "RootNode"}, {"children" : [2], "matrix" : [1, 0, 0, 0, 0, 0, 1, 0, 0, -1, 0, 0, 0, 0, 0, 1], "name" : "c9fd0ca9e1164d41b980cc3ab89e00a9.fbx"}, {"children" : [3], "matrix" : [0.3726206421852112, 0, 0, 0, 0, 8.273840328092667E-17, -0.3726206421852112, 0, 0, 0.3726206421852112, 8.273840328092667E-17, 0, 0, 0, 0, 1], "name" : "Sketchfab_model"}], "samplers" : [{"magFilter" : 9729, "minFilter" : 9987, "wrapS" : 10497, "wrapT" : 10497}, {"magFilter" : 9729, "minFilter" : 9987, "wrapS" : 10497, "wrapT" : 10497}], "scene" : 0, "scenes" : [{"nodes" : [4]}], "textures" : [{"sampler" : 0, "source" : 0, "name" : ""}, {"sampler" : 1, "source" : 1, "name" : ""}]}