{"accessors" : [{"bufferView" : 0, "byteOffset" : 0, "componentType" : 5123, "count" : 28944, "type" : "SCALAR", "max" : [5711], "min" : [0]}, {"bufferView" : 1, "byteOffset" : 0, "componentType" : 5126, "count" : 5712, "type" : "VEC3", "max" : [48.058135986328125, 109.48756408691406, 110.12889099121094], "min" : [-50.189598083496094, -109.48756408691406, 0], "name" : "POSITION"}, {"bufferView" : 1, "byteOffset" : 12, "componentType" : 5126, "count" : 5712, "type" : "VEC3", "max" : [1.0000044107437134, 1.0000044107437134, 1.0000044107437134], "min" : [-1.0000044107437134, -1.0000044107437134, -1.0000044107437134], "name" : "NORMAL"}, {"bufferView" : 1, "byteOffset" : 24, "componentType" : 5126, "count" : 5712, "type" : "VEC4", "max" : [1.0000044107437134, 1.0000044107437134, 1.0000044107437134, 1], "min" : [-1.0000044107437134, -1.0000044107437134, -1.0000044107437134, -1], "name" : "TANGENT"}, {"bufferView" : 1, "byteOffset" : 40, "componentType" : 5126, "count" : 5712, "type" : "VEC2", "max" : [0.9913239479064941, 1.996079683303833], "min" : [0.0005000000237487257, 1.000499963760376], "name" : "TEXCOORD_0"}], "asset" : {"generator" : "Aspose.3D 24.6.0", "version" : "2.0"}, "buffers" : [{"uri" : "data:application/octet-stream;base64,", "byteLength" : 332072}], "bufferViews" : [{"buffer" : 0, "byteOffset" : 0, "byteLength" : 57888, "target" : 34963}, {"buffer" : 0, "byteOffset" : 57892, "byteLength" : 274176, "byteStride" : 48, "target" : 34962}], "images" : [{"uri" : "data:image/png;base64,"}, {"uri" : "data:image/png;base64,"}, {"uri" : "data:image/png;base64,"}], "materials" : [{"name" : "Scene_-_Root", "pbrMetallicRoughness" : {"baseColorFactor" : [1, 1, 1, 1], "baseColorTexture" : {"index" : 2, "texCoord" : 0}, "metallicFactor" : 0, "roughnessFactor" : 1, "metallicRoughnessTexture" : {"index" : 1, "texCoord" : 0}}, "normalTexture" : {"index" : 0, "texCoord" : 0, "scale" : 1}, "occlusionTexture" : {"index" : 1, "texCoord" : 0, "strength" : 0}, "emissiveFactor" : [0, 0, 0], "alphaMode" : "OPAQUE", "doubleSided" : true}], "meshes" : [{"primitives" : [{"attributes" : {"POSITION" : 1, "NORMAL" : 2, "TANGENT" : 3, "TEXCOORD_0" : 4}, "indices" : 0, "material" : 0, "mode" : 4}]}], "nodes" : [{"mesh" : 0, "name" : "dessous__0"}, {"children" : [0], "matrix" : [1, 0, 0, 0, 0, 2.220446049250313E-16, -1, 0, 0, 1, 2.220446049250313E-16, 0, 0, 0, 0, 1], "name" : "dessous"}, {"children" : [1], "name" : "RootNode"}, {"children" : [2], "matrix" : [1, 0, 0, 0, 0, 0, 1, 0, 0, -1, 0, 0, 0, 0, 0, 1], "name" : "05a1a77aaefd4208bc87557a2d501c3e.fbx"}, {"children" : [3], "matrix" : [1, 0, 0, 0, 0, 2.220446049250313E-16, -1, 0, 0, 1, 2.220446049250313E-16, 0, 0, 0, 0, 1], "name" : "Sketchfab_model"}], "samplers" : [{"magFilter" : 9729, "minFilter" : 9987, "wrapS" : 10497, "wrapT" : 10497}, {"magFilter" : 9729, "minFilter" : 9987, "wrapS" : 10497, "wrapT" : 10497}, {"magFilter" : 9729, "minFilter" : 9987, "wrapS" : 10497, "wrapT" : 10497}], "scene" : 0, "scenes" : [{"nodes" : [4]}], "textures" : [{"sampler" : 0, "source" : 0, "name" : ""}, {"sampler" : 1, "source" : 1, "name" : ""}, {"sampler" : 2, "source" : 2, "name" : ""}]}