{
  "accessors": [
    {
      "bufferView": 2,
      "componentType": 5126,
      "count": 654,
      "max": [
        1081.0577392578125,
        439.7123107910156,
        791.16650390625
      ],
      "min": [
        -1083.957275390625,
        -477.4136962890625,
        -1.0026999711990356
      ],
      "type": "VEC3"
    },
    {
      "bufferView": 2,
      "byteOffset": 7848,
      "componentType": 5126,
      "count": 654,
      "max": [
        0.9970871806144714,
        0.9984193444252014,
        0.9777013659477234
      ],
      "min": [
        -0.9971040487289429,
        -0.9984091520309448,
        -0.994881272315979
      ],
      "type": "VEC3"
    },
    {
      "bufferView": 3,
      "componentType": 5126,
      "count": 654,
      "max": [
        1.0,
        0.9973902106285095,
        0.9992536902427673,
        1.0
      ],
      "min": [
        -1.0,
        -0.9983422756195068,
        -0.8317928910255432,
        1.0
      ],
      "type": "VEC4"
    },
    {
      "bufferView": 1,
      "componentType": 5126,
      "count": 654,
      "max": [
        0.998199999332428,
        0.9930999875068665
      ],
      "min": [
        0.0005000000237487257,
        0.06679999828338623
      ],
      "type": "VEC2"
    },
    {
      "bufferView": 0,
      "componentType": 5125,
      "count": 1854,
      "type": "SCALAR"
    },
    {
      "bufferView": 2,
      "byteOffset": 15696,
      "componentType": 5126,
      "count": 17203,
      "max": [
        1104.900146484375,
        495.29998779296875,
        799.0972900390625
      ],
      "min": [
        -1104.900146484375,
        -495.29998779296875,
        -1.0026999711990356
      ],
      "type": "VEC3"
    },
    {
      "bufferView": 2,
      "byteOffset": 222132,
      "componentType": 5126,
      "count": 17203,
      "max": [
        1.0,
        1.0,
        1.0
      ],
      "min": [
        -1.0,
        -1.0,
        -1.0
      ],
      "type": "VEC3"
    },
    {
      "bufferView": 3,
      "byteOffset": 10464,
      "componentType": 5126,
      "count": 17203,
      "max": [
        1.0,
        1.0,
        1.0,
        1.0
      ],
      "min": [
        -1.0,
        -1.0,
        -0.9980385899543762,
        1.0
      ],
      "type": "VEC4"
    },
    {
      "bufferView": 1,
      "byteOffset": 5232,
      "componentType": 5126,
      "count": 17203,
      "max": [
        0.9994999766349792,
        0.9965000152587891
      ],
      "min": [
        0.0005000000237487257,
        0.0005000000237487257
      ],
      "type": "VEC2"
    },
    {
      "bufferView": 0,
      "byteOffset": 7416,
      "componentType": 5125,
      "count": 81570,
      "type": "SCALAR"
    },
    {
      "bufferView": 2,
      "byteOffset": 428568,
      "componentType": 5126,
      "count": 76,
      "max": [
        1080.0574951171875,
        438.7361145019531,
        788.240478515625
      ],
      "min": [
        -1082.95703125,
        -474.77740478515625,
        51.702999114990234
      ],
      "type": "VEC3"
    },
    {
      "bufferView": 2,
      "byteOffset": 429480,
      "componentType": 5126,
      "count": 76,
      "max": [
        0.8027600049972534,
        0.961644172668457,
        0.9998880624771118
      ],
      "min": [
        -0.7842805981636047,
        -0.9767484664916992,
        -0.9999010562896729
      ],
      "type": "VEC3"
    },
    {
      "bufferView": 3,
      "byteOffset": 285712,
      "componentType": 5126,
      "count": 76,
      "max": [
        0.9999926090240479,
        0.3289780616760254,
        0.7815403938293457,
        1.0
      ],
      "min": [
        -0.99820476770401,
        -0.09916073083877563,
        -0.0704130083322525,
        1.0
      ],
      "type": "VEC4"
    },
    {
      "bufferView": 1,
      "byteOffset": 142856,
      "componentType": 5126,
      "count": 76,
      "max": [
        0.9836999773979187,
        0.991100013256073
      ],
      "min": [
        0.04639999940991402,
        0.06679999828338623
      ],
      "type": "VEC2"
    },
    {
      "bufferView": 0,
      "byteOffset": 333696,
      "componentType": 5125,
      "count": 144,
      "type": "SCALAR"
    }
  ],
  "asset": {
    "extras": {
      "author": "Abdur Razzak Sawon (https://sketchfab.com/md.abdur.razzak.sawon)",
      "license": "CC-BY-4.0 (http://creativecommons.org/licenses/by/4.0/)",
      "source": "https://sketchfab.com/3d-models/beverly-linen-blend-sofa-white-6a8ba8f474034ed7a1c4b2bd0c49171f",
      "title": "Beverly_Linen_Blend_Sofa_White"
    },
    "generator": "Sketchfab-16.16.0",
    "version": "2.0"
  },
  "bufferViews": [
    {
      "buffer": 0,
      "byteLength": 334272,
      "name": "floatBufferViews",
      "target": 34963
    },
    {
      "buffer": 0,
      "byteLength": 143464,
      "byteOffset": 334272,
      "byteStride": 8,
      "name": "floatBufferViews",
      "target": 34962
    },
    {
      "buffer": 0,
      "byteLength": 430392,
      "byteOffset": 477736,
      "byteStride": 12,
      "name": "floatBufferViews",
      "target": 34962
    },
    {
      "buffer": 0,
      "byteLength": 286928,
      "byteOffset": 908128,
      "byteStride": 16,
      "name": "floatBufferViews",
      "target": 34962
    }
  ],
  "buffers": [
    {
      "byteLength": 1195056,
      "uri": "scene.bin"
    }
  ],
  "images": [
    {
      "uri": "textures/wire_086086086_baseColor.png"
    },
    {
      "uri": "textures/wire_086086086_metallicRoughness.png"
    },
    {
      "uri": "textures/wire_086086086_normal.png"
    }
  ],
  "materials": [
    {
      "doubleSided": true,
      "name": "wire_086086086",
      "normalTexture": {
        "index": 2
      },
      "pbrMetallicRoughness": {
        "baseColorTexture": {
          "index": 0
        },
        "metallicRoughnessTexture": {
          "index": 1
        }
      }
    }
  ],
  "meshes": [
    {
      "name": "Object_0",
      "primitives": [
        {
          "attributes": {
            "NORMAL": 1,
            "POSITION": 0,
            "TANGENT": 2,
            "TEXCOORD_0": 3
          },
          "indices": 4,
          "material": 0,
          "mode": 4
        }
      ]
    },
    {
      "name": "Object_1",
      "primitives": [
        {
          "attributes": {
            "NORMAL": 6,
            "POSITION": 5,
            "TANGENT": 7,
            "TEXCOORD_0": 8
          },
          "indices": 9,
          "material": 0,
          "mode": 4
        }
      ]
    },
    {
      "name": "Object_2",
      "primitives": [
        {
          "attributes": {
            "NORMAL": 11,
            "POSITION": 10,
            "TANGENT": 12,
            "TEXCOORD_0": 13
          },
          "indices": 14,
          "material": 0,
          "mode": 4
        }
      ]
    }
  ],
  "nodes": [
    {
      "children": [
        1
      ],
      "matrix": [
        1.0,
        0.0,
        0.0,
        0.0,
        0.0,
        2.220446049250313e-16,
        -1.0,
        0.0,
        0.0,
        1.0,
        2.220446049250313e-16,
        0.0,
        0.0,
        0.0,
        0.0,
        1.0
      ],
      "name": "Sketchfab_model"
    },
    {
      "children": [
        2,
        3,
        4
      ],
      "name": "Beverly_Linen_Blend_Sofa_Whi-151646.obj.cleaner.materialmerger.gles"
    },
    {
      "mesh": 0,
      "name": "Object_2"
    },
    {
      "mesh": 1,
      "name": "Object_3"
    },
    {
      "mesh": 2,
      "name": "Object_4"
    }
  ],
  "samplers": [
    {
      "magFilter": 9729,
      "minFilter": 9987,
      "wrapS": 10497,
      "wrapT": 10497
    }
  ],
  "scene": 0,
  "scenes": [
    {
      "name": "Sketchfab_Scene",
      "nodes": [
        0
      ]
    }
  ],
  "textures": [
    {
      "sampler": 0,
      "source": 0
    },
    {
      "sampler": 0,
      "source": 1
    },
    {
      "sampler": 0,
      "source": 2
    }
  ]
}
