{"accessors" : [{"bufferView" : 0, "byteOffset" : 0, "componentType" : 5123, "count" : 1920, "type" : "SCALAR", "max" : [625], "min" : [0]}, {"bufferView" : 1, "byteOffset" : 0, "componentType" : 5126, "count" : 626, "type" : "VEC3", "max" : [34.966697692871094, 50.40569305419922, 7.6743998527526855], "min" : [-34.966697692871094, -0.7490890026092529, -9.35226058959961], "name" : "POSITION"}, {"bufferView" : 1, "byteOffset" : 12, "componentType" : 5126, "count" : 626, "type" : "VEC3", "max" : [1.0000044107437134, 1.0000044107437134, 1.0000044107437134], "min" : [-1.0000044107437134, -1.0000044107437134, -1.0000044107437134], "name" : "NORMAL"}, {"bufferView" : 1, "byteOffset" : 24, "componentType" : 5126, "count" : 626, "type" : "VEC2", "max" : [0.9970065951347351, 1.9911390542984009], "min" : [0.0029853833839297295, 1.0029855966567993], "name" : "TEXCOORD_0"}, {"bufferView" : 0, "byteOffset" : 3840, "componentType" : 5123, "count" : 12, "type" : "SCALAR", "max" : [5], "min" : [0]}, {"bufferView" : 2, "byteOffset" : 0, "componentType" : 5126, "count" : 6, "type" : "VEC3", "max" : [33.18310546875, 49.30244827270508, -2.9744441509246826], "min" : [-33.18310546875, 7.5089545249938965, -2.9744441509246826], "name" : "POSITION"}, {"bufferView" : 2, "byteOffset" : 12, "componentType" : 5126, "count" : 6, "type" : "VEC3", "max" : [0, 0, -1.0000044107437134], "min" : [0, 0, -1.0000044107437134], "name" : "NORMAL"}, {"bufferView" : 2, "byteOffset" : 24, "componentType" : 5126, "count" : 6, "type" : "VEC2", "max" : [0.939224362373352, 1.55411696434021], "min" : [0.5892403721809387, 1.002991795539856], "name" : "TEXCOORD_0"}, {"bufferView" : 0, "byteOffset" : 3864, "componentType" : 5123, "count" : 60, "type" : "SCALAR", "max" : [23], "min" : [0]}, {"bufferView" : 3, "byteOffset" : 0, "componentType" : 5126, "count" : 24, "type" : "VEC3", "max" : [24.077173233032227, -0.10009638220071793, -8.627555847167969], "min" : [-24.06352424621582, -0.4896661341190338, -9.35226058959961], "name" : "POSITION"}, {"bufferView" : 3, "byteOffset" : 12, "componentType" : 5126, "count" : 24, "type" : "VEC3", "max" : [0.3154507577419281, 0, -0.9446960091590881], "min" : [-0.32796093821525574, 0, -0.9489465355873108], "name" : "NORMAL"}, {"bufferView" : 3, "byteOffset" : 24, "componentType" : 5126, "count" : 24, "type" : "VEC2", "max" : [0.38253071904182434, 1.1497535705566406], "min" : [0.314948707818985, 1.0328916311264038], "name" : "TEXCOORD_0"}], "asset" : {"generator" : "Aspose.3D 24.6.0", "version" : "2.0"}, "buffers" : [{"uri" : "data:application/octet-stream;base64,", "byteLength" : 24992}], "bufferViews" : [{"buffer" : 0, "byteOffset" : 0, "byteLength" : 3984, "target" : 34963}, {"buffer" : 0, "byteOffset" : 3988, "byteLength" : 20032, "byteStride" : 32, "target" : 34962}, {"buffer" : 0, "byteOffset" : 24024, "byteLength" : 192, "byteStride" : 32, "target" : 34962}, {"buffer" : 0, "byteOffset" : 24220, "byteLength" : 768, "byteStride" : 32, "target" : 34962}], "images" : [{"uri" : "data:image/png;base64,"}, {"uri" : "data:image/png;base64,"}, {"uri" : "data:image/png;base64,"}], "materials" : [{"name" : "Scocca", "pbrMetallicRoughness" : {"baseColorFactor" : [1, 1, 1, 1], "baseColorTexture" : {"index" : 1, "texCoord" : 0}, "metallicFactor" : 0, "roughnessFactor" : 1, "metallicRoughnessTexture" : {"index" : 0, "texCoord" : 0}}, "occlusionTexture" : {"index" : 0, "texCoord" : 0, "strength" : 0}, "emissiveFactor" : [0, 0, 0], "alphaMode" : "OPAQUE", "doubleSided" : true}, {"name" : "Schermo", "pbrMetallicRoughness" : {"baseColorFactor" : [1, 1, 1, 1], "baseColorTexture" : {"index" : 2, "texCoord" : 0}, "metallicFactor" : 0, "roughnessFactor" : 1, "metallicRoughnessTexture" : {"index" : 0, "texCoord" : 0}}, "occlusionTexture" : {"index" : 0, "texCoord" : 0, "strength" : 0}, "emissiveTexture" : {"index" : 2, "texCoord" : 0}, "emissiveFactor" : [1, 1, 1], "alphaMode" : "OPAQUE", "doubleSided" : true}, {"name" : "Piedini", "pbrMetallicRoughness" : {"baseColorFactor" : [0.8, 0.8, 0.8, 1], "metallicFactor" : 0, "roughnessFactor" : 0.8211145618000169}, "emissiveFactor" : [0, 0, 0], "alphaMode" : "OPAQUE", "doubleSided" : true}], "meshes" : [{"primitives" : [{"attributes" : {"POSITION" : 1, "NORMAL" : 2, "TEXCOORD_0" : 3}, "indices" : 0, "material" : 0, "mode" : 4}]}, {"primitives" : [{"attributes" : {"POSITION" : 5, "NORMAL" : 6, "TEXCOORD_0" : 7}, "indices" : 4, "material" : 1, "mode" : 4}]}, {"primitives" : [{"attributes" : {"POSITION" : 9, "NORMAL" : 10, "TEXCOORD_0" : 11}, "indices" : 8, "material" : 2, "mode" : 4}]}], "nodes" : [{"mesh" : 0, "name" : "TV_Scocca_0"}, {"mesh" : 1, "name" : "TV_Schermo_0"}, {"mesh" : 2, "name" : "TV_Piedini_0"}, {"children" : [0, 1, 2], "name" : "TV"}, {"children" : [3], "name" : "RootNode"}, {"children" : [4], "matrix" : [1, 0, 0, 0, 0, 0, 1, 0, 0, -1, 0, 0, 0, 0, 0, 1], "name" : "tv.fbx"}, {"children" : [5], "matrix" : [0.016440613195300102, 0, 0, 0, 0, 3.650549461675668E-18, -0.016440613195300102, 0, 0, 0.016440613195300102, 3.650549461675668E-18, 0, 0, 0, 0, 1], "name" : "Sketchfab_model"}], "samplers" : [{"magFilter" : 9729, "minFilter" : 9987, "wrapS" : 10497, "wrapT" : 10497}, {"magFilter" : 9729, "minFilter" : 9987, "wrapS" : 10497, "wrapT" : 10497}, {"magFilter" : 9729, "minFilter" : 9987, "wrapS" : 10497, "wrapT" : 10497}], "scene" : 0, "scenes" : [{"nodes" : [6]}], "textures" : [{"sampler" : 0, "source" : 0, "name" : ""}, {"sampler" : 1, "source" : 1, "name" : ""}, {"sampler" : 2, "source" : 2, "name" : ""}]}