{"accessors" : [{"bufferView" : 0, "byteOffset" : 0, "componentType" : 5123, "count" : 1107, "type" : "SCALAR", "max" : [461], "min" : [0]}, {"bufferView" : 1, "byteOffset" : 0, "componentType" : 5126, "count" : 462, "type" : "VEC3", "max" : [0.43580642342567444, 0.059456177055835724, 0.5772337317466736], "min" : [-0.41419360041618347, -0.08162590861320496, 5.140900611877441E-06], "name" : "POSITION"}, {"bufferView" : 1, "byteOffset" : 12, "componentType" : 5126, "count" : 462, "type" : "VEC3", "max" : [1.0000044107437134, 1.0000044107437134, 1.0000044107437134], "min" : [-1.0000044107437134, -1.0000044107437134, -1.0000044107437134], "name" : "NORMAL"}, {"bufferView" : 1, "byteOffset" : 24, "componentType" : 5126, "count" : 462, "type" : "VEC4", "max" : [0.7773939371109009, 1.0000044107437134, 1.0000044107437134, 1], "min" : [-0.7773914337158203, -1.0000044107437134, -1.0000044107437134, -1], "name" : "TANGENT"}, {"bufferView" : 1, "byteOffset" : 40, "componentType" : 5126, "count" : 462, "type" : "VEC2", "max" : [0.9959089756011963, 1.9992070198059082], "min" : [0.0054087452590465546, 1.0007929801940918], "name" : "TEXCOORD_0"}, {"bufferView" : 0, "byteOffset" : 2216, "componentType" : 5123, "count" : 6, "type" : "SCALAR", "max" : [3], "min" : [0]}, {"bufferView" : 2, "byteOffset" : 0, "componentType" : 5126, "count" : 4, "type" : "VEC3", "max" : [0.41505879163742065, 0.028828412294387817, 0.556486189365387], "min" : [-0.3934459686279297, 0.028828412294387817, 0.07344888150691986], "name" : "POSITION"}, {"bufferView" : 2, "byteOffset" : 12, "componentType" : 5126, "count" : 4, "type" : "VEC3", "max" : [0, 1.0000044107437134, 0], "min" : [0, 1.0000044107437134, 0], "name" : "NORMAL"}, {"bufferView" : 2, "byteOffset" : 24, "componentType" : 5126, "count" : 4, "type" : "VEC2", "max" : [0.9961649179458618, 1.5966979265213013], "min" : [0.0038350820541381836, 1.0038350820541382], "name" : "TEXCOORD_0"}], "asset" : {"generator" : "Aspose.3D 24.6.0", "version" : "2.0"}, "buffers" : [{"uri" : "data:application/octet-stream;base64,", "byteLength" : 24544}], "bufferViews" : [{"buffer" : 0, "byteOffset" : 0, "byteLength" : 2228, "target" : 34963}, {"buffer" : 0, "byteOffset" : 2232, "byteLength" : 22176, "byteStride" : 48, "target" : 34962}, {"buffer" : 0, "byteOffset" : 24412, "byteLength" : 128, "byteStride" : 32, "target" : 34962}], "images" : [{"uri" : "data:image/jpeg;base64,"}, {"uri" : "data:image/png;base64,"}, {"uri" : "data:image/png;base64,"}, {"uri" : "data:image/jpeg;base64,"}, {"uri" : "data:image/jpeg;base64,"}, {"uri" : "data:image/png;base64,"}], "materials" : [{"name" : "material", "pbrMetallicRoughness" : {"baseColorFactor" : [1, 1, 1, 1], "baseColorTexture" : {"index" : 3, "texCoord" : 0}, "metallicFactor" : 0, "roughnessFactor" : 1, "metallicRoughnessTexture" : {"index" : 2, "texCoord" : 0}}, "normalTexture" : {"index" : 1, "texCoord" : 0, "scale" : 1}, "occlusionTexture" : {"index" : 2, "texCoord" : 0, "strength" : 0}, "emissiveTexture" : {"index" : 0, "texCoord" : 0}, "emissiveFactor" : [1, 1, 1], "alphaMode" : "OPAQUE", "doubleSided" : true}, {"name" : "Screen", "pbrMetallicRoughness" : {"baseColorFactor" : [1, 1, 1, 1], "baseColorTexture" : {"index" : 4, "texCoord" : 0}, "metallicFactor" : 0, "roughnessFactor" : 1, "metallicRoughnessTexture" : {"index" : 5, "texCoord" : 0}}, "emissiveFactor" : [0, 0, 0], "alphaMode" : "OPAQUE", "doubleSided" : true}], "meshes" : [{"primitives" : [{"attributes" : {"POSITION" : 1, "NORMAL" : 2, "TANGENT" : 3, "TEXCOORD_0" : 4}, "indices" : 0, "material" : 0, "mode" : 4}]}, {"primitives" : [{"attributes" : {"POSITION" : 6, "NORMAL" : 7, "TEXCOORD_0" : 8}, "indices" : 5, "material" : 1, "mode" : 4}]}], "nodes" : [{"mesh" : 0, "name" : "TV1_TV1_0"}, {"mesh" : 1, "name" : "TV1_Screen_0"}, {"children" : [0, 1], "matrix" : [-99.99999999999241, 1.2246465878873718E-14, 3.8941437775530106E-05, 0, 3.894143777553E-05, 7.549789982075339E-06, 99.99999999999213, 0, -2.9277502948264183E-12, 99.9999999999997, -7.549789970973109E-06, 0, 0, 0, 0, 1], "name" : "TV1"}, {"children" : [2], "name" : "RootNode"}, {"children" : [3], "matrix" : [0.009999999776482582, 0, 0, 0, 0, 0, 0.009999999776482582, 0, 0, -0.009999999776482582, 0, 0, 0, 0, 0, 1], "name" : "281951f247ae4c2eb923af451a771723.fbx"}, {"children" : [4], "matrix" : [1, 0, 0, 0, 0, 2.220446049250313E-16, -1, 0, 0, 1, 2.220446049250313E-16, 0, 0, 0, 0, 1], "name" : "Sketchfab_model"}], "samplers" : [{"magFilter" : 9729, "minFilter" : 9987, "wrapS" : 10497, "wrapT" : 10497}, {"magFilter" : 9729, "minFilter" : 9987, "wrapS" : 10497, "wrapT" : 10497}, {"magFilter" : 9729, "minFilter" : 9987, "wrapS" : 10497, "wrapT" : 10497}, {"magFilter" : 9729, "minFilter" : 9987, "wrapS" : 10497, "wrapT" : 10497}, {"magFilter" : 9729, "minFilter" : 9987, "wrapS" : 10497, "wrapT" : 10497}, {"magFilter" : 9729, "minFilter" : 9987, "wrapS" : 10497, "wrapT" : 10497}], "scene" : 0, "scenes" : [{"nodes" : [5]}], "textures" : [{"sampler" : 0, "source" : 0, "name" : ""}, {"sampler" : 1, "source" : 1, "name" : ""}, {"sampler" : 2, "source" : 2, "name" : ""}, {"sampler" : 3, "source" : 3, "name" : ""}, {"sampler" : 4, "source" : 4, "name" : ""}, {"sampler" : 5, "source" : 5, "name" : ""}]}