{"extensionsUsed" : ["KHR_materials_clearcoat"], "accessors" : [{"bufferView" : 0, "byteOffset" : 0, "componentType" : 5123, "count" : 165, "type" : "SCALAR", "max" : [164], "min" : [0]}, {"bufferView" : 1, "byteOffset" : 0, "componentType" : 5126, "count" : 165, "type" : "VEC3", "max" : [1.004637598991394, 1.0000003576278687, 1], "min" : [-1.0000003576278687, -1.0000005960464478, -3.912095308303833], "name" : "POSITION"}, {"bufferView" : 1, "byteOffset" : 12, "componentType" : 5126, "count" : 165, "type" : "VEC3", "max" : [0.984303891658783, 0.9367195963859558, 0.767991840839386], "min" : [-0.9837427139282227, -0.9354981184005737, -0.6323555111885071], "name" : "NORMAL"}, {"bufferView" : 1, "byteOffset" : 24, "componentType" : 5126, "count" : 165, "type" : "VEC2", "max" : [1.0028607845306396, 2], "min" : [-0.009756077080965042, 0.9989920258522034], "name" : "TEXCOORD_0"}, {"bufferView" : 1, "byteOffset" : 32, "componentType" : 5126, "count" : 165, "type" : "VEC2", "max" : [0.9818586111068726, 1.9944000244140625], "min" : [0.0010000000474974513, 1.0010000467300415], "name" : "TEXCOORD_1"}, {"bufferView" : 0, "byteOffset" : 332, "componentType" : 5123, "count" : 96, "type" : "SCALAR", "max" : [24], "min" : [0]}, {"bufferView" : 2, "byteOffset" : 0, "componentType" : 5126, "count" : 25, "type" : "VEC3", "max" : [0.8446923494338989, 0.25417110323905945, -3.910403251647949], "min" : [0.1331005096435547, -0.044366538524627686, -4.0390167236328125], "name" : "POSITION"}, {"bufferView" : 2, "byteOffset" : 12, "componentType" : 5126, "count" : 25, "type" : "VEC3", "max" : [0.1778596192598343, 2.037752210526378E-06, -0.9840603470802307], "min" : [0.17785748839378357, -4.35950323662837E-06, -0.9840606451034546], "name" : "NORMAL"}, {"bufferView" : 2, "byteOffset" : 24, "componentType" : 5126, "count" : 25, "type" : "VEC2", "max" : [1, 2], "min" : [0, 1], "name" : "TEXCOORD_0"}, {"bufferView" : 2, "byteOffset" : 32, "componentType" : 5126, "count" : 25, "type" : "VEC2", "max" : [0.8686314821243286, 1.3835450410842896], "min" : [0.7998285293579102, 1.354679822921753], "name" : "TEXCOORD_1"}, {"bufferView" : 0, "byteOffset" : 524, "componentType" : 5123, "count" : 75, "type" : "SCALAR", "max" : [74], "min" : [0]}, {"bufferView" : 3, "byteOffset" : 0, "componentType" : 5126, "count" : 75, "type" : "VEC3", "max" : [0.936281681060791, 0.9314876198768616, -0.3657430112361908], "min" : [-0.931775689125061, -0.9323787689208984, -3.8447556495666504], "name" : "POSITION"}, {"bufferView" : 3, "byteOffset" : 12, "componentType" : 5126, "count" : 75, "type" : "VEC3", "max" : [0.516434371471405, 0.9757297039031982, 0.9903194904327393], "min" : [-0.8249316811561584, -0.9884054660797119, 0.15185706317424774], "name" : "NORMAL"}, {"bufferView" : 3, "byteOffset" : 24, "componentType" : 5126, "count" : 75, "type" : "VEC2", "max" : [1.000084400177002, 2.002336025238037], "min" : [-8.976459503173828E-05, 0.9992660284042358], "name" : "TEXCOORD_0"}, {"bufferView" : 3, "byteOffset" : 32, "componentType" : 5126, "count" : 75, "type" : "VEC2", "max" : [0.9928233027458191, 1.999000072479248], "min" : [0.0010000000474974513, 1.0010000467300415], "name" : "TEXCOORD_1"}], "asset" : {"generator" : "Aspose.3D 24.6.0", "version" : "2.0"}, "buffers" : [{"uri" : "data:application/octet-stream;base64,", "byteLength" : 11292}], "bufferViews" : [{"buffer" : 0, "byteOffset" : 0, "byteLength" : 676, "target" : 34963}, {"buffer" : 0, "byteOffset" : 680, "byteLength" : 6600, "byteStride" : 40, "target" : 34962}, {"buffer" : 0, "byteOffset" : 7284, "byteLength" : 1000, "byteStride" : 40, "target" : 34962}, {"buffer" : 0, "byteOffset" : 8288, "byteLength" : 3000, "byteStride" : 40, "target" : 34962}], "images" : [{"uri" : "data:image/jpeg;base64,"}, {"uri" : "data:image/jpeg;base64,"}], "materials" : [{"name" : "03_-_Default", "extensions" : {"KHR_materials_clearcoat" : {"clearcoatFactor" : 1, "clearcoatRoughnessFactor" : 0.04}}, "pbrMetallicRoughness" : {"baseColorFactor" : [0, 0, 0, 1], "metallicFactor" : 0.5063644212587175, "roughnessFactor" : 0}, "emissiveFactor" : [0, 0, 0], "alphaMode" : "OPAQUE", "doubleSided" : true}, {"name" : "default", "pbrMetallicRoughness" : {"baseColorFactor" : [1, 1, 1, 1], "baseColorTexture" : {"index" : 0, "texCoord" : 0}, "metallicFactor" : 0, "roughnessFactor" : 0.8929713596497552}, "emissiveFactor" : [0, 0, 0], "alphaMode" : "OPAQUE", "doubleSided" : true}, {"name" : "02_-_Default", "pbrMetallicRoughness" : {"baseColorFactor" : [1, 1, 1, 1], "baseColorTexture" : {"index" : 1, "texCoord" : 0}, "metallicFactor" : 0, "roughnessFactor" : 0.8929713596497552}, "emissiveTexture" : {"index" : 1, "texCoord" : 0}, "emissiveFactor" : [1, 1, 1], "alphaMode" : "OPAQUE", "doubleSided" : true}], "meshes" : [{"primitives" : [{"attributes" : {"POSITION" : 1, "NORMAL" : 2, "TEXCOORD_0" : 3, "TEXCOORD_1" : 4}, "indices" : 0, "material" : 0, "mode" : 4}]}, {"primitives" : [{"attributes" : {"POSITION" : 6, "NORMAL" : 7, "TEXCOORD_0" : 8, "TEXCOORD_1" : 9}, "indices" : 5, "material" : 1, "mode" : 4}]}, {"primitives" : [{"attributes" : {"POSITION" : 11, "NORMAL" : 12, "TEXCOORD_0" : 13, "TEXCOORD_1" : 14}, "indices" : 10, "material" : 2, "mode" : 4}]}], "nodes" : [{"mesh" : 0, "name" : "Body_03 - Default_0"}, {"mesh" : 1, "name" : "Body_default_0"}, {"mesh" : 2, "name" : "Body_02 - Default_0"}, {"children" : [0, 1, 2], "matrix" : [0.10689026993288049, 5.153129745640091E-07, -17.225424047448403, 0, 9.146464860093885E-07, -33.4356880187988, -9.945808586533157E-07, 0, -0.59101933789813, -1.6058474300869113E-08, -0.0036674984830257153, 0, 0, 0, 0, 1], "name" : "Object_4"}, {"children" : [3], "matrix" : [2.5399999618530273, 0, 0, 0, 0, 5.6399328803925005E-16, -2.5399999618530273, 0, 0, 2.5399999618530273, 5.6399328803925005E-16, 0, -9.752693176269531, 60.704444885253906, 2.5317041873931885, 1], "name" : "Body"}, {"children" : [4], "name" : "RootNode"}, {"children" : [5], "matrix" : [1, 0, 0, 0, 0, 0, 1, 0, 0, -1, 0, 0, 0, 0, 0, 1], "name" : "be6ae31816024ba09a00ddeefe444dc6.fbx"}, {"children" : [6], "matrix" : [0.014537015929818153, 0, 0, 0, 0, 3.2278659589253585E-18, -0.014537015929818153, 0, 0, 0.014537015929818153, 3.2278659589253585E-18, 0, 0, 0, 0, 1], "name" : "Sketchfab_model"}], "samplers" : [{"magFilter" : 9729, "minFilter" : 9987, "wrapS" : 10497, "wrapT" : 10497}, {"magFilter" : 9729, "minFilter" : 9987, "wrapS" : 10497, "wrapT" : 10497}], "scene" : 0, "scenes" : [{"nodes" : [7]}], "textures" : [{"sampler" : 0, "source" : 0, "name" : ""}, {"sampler" : 1, "source" : 1, "name" : ""}]}