{"extensionsUsed" : ["KHR_materials_unlit"], "accessors" : [{"bufferView" : 0, "byteOffset" : 0, "componentType" : 5123, "count" : 1056, "type" : "SCALAR", "max" : [191], "min" : [0]}, {"bufferView" : 1, "byteOffset" : 0, "componentType" : 5126, "count" : 192, "type" : "VEC3", "max" : [301.4715881347656, 138.15419006347656, 8.68693733215332], "min" : [-307.47650146484375, -132.53614807128906, 0], "name" : "POSITION"}, {"bufferView" : 1, "byteOffset" : 12, "componentType" : 5126, "count" : 192, "type" : "VEC3", "max" : [1.0000044107437134, 1.0000044107437134, 1.0000044107437134], "min" : [-1.0000044107437134, -1.0000044107437134, -1.0000044107437134], "name" : "NORMAL"}, {"bufferView" : 1, "byteOffset" : 24, "componentType" : 5126, "count" : 192, "type" : "VEC2", "max" : [399.0961608886719, 172.1360626220703], "min" : [-407.04559326171875, -164.90875244140625], "name" : "TEXCOORD_0"}, {"bufferView" : 0, "byteOffset" : 2112, "componentType" : 5123, "count" : 8724, "type" : "SCALAR", "max" : [1488], "min" : [0]}, {"bufferView" : 2, "byteOffset" : 0, "componentType" : 5126, "count" : 1489, "type" : "VEC3", "max" : [297.2341003417969, 132.19715881347656, 72.71792602539062], "min" : [-303.1383361816406, -126.49285125732422, 0], "name" : "POSITION"}, {"bufferView" : 2, "byteOffset" : 12, "componentType" : 5126, "count" : 1489, "type" : "VEC3", "max" : [1.0000044107437134, 1.0000044107437134, 1.0000044107437134], "min" : [-1.0000044107437134, -1.0000044107437134, -1.0000044107437134], "name" : "NORMAL"}, {"bufferView" : 2, "byteOffset" : 24, "componentType" : 5126, "count" : 1489, "type" : "VEC2", "max" : [352.1524963378906, 142.70506286621094], "min" : [-360.1019287109375, -135.47775268554688], "name" : "TEXCOORD_0"}, {"bufferView" : 0, "byteOffset" : 19560, "componentType" : 5123, "count" : 2880, "type" : "SCALAR", "max" : [710], "min" : [0]}, {"bufferView" : 3, "byteOffset" : 0, "componentType" : 5126, "count" : 711, "type" : "VEC3", "max" : [41.46372985839844, 30.61855125427246, 117.91888427734375], "min" : [-45.14161682128906, -33.091068267822266, 71.08667755126953], "name" : "POSITION"}, {"bufferView" : 3, "byteOffset" : 12, "componentType" : 5126, "count" : 711, "type" : "VEC3", "max" : [0.9999014735221863, 1.0000022649765015, 0.9999474287033081], "min" : [-0.9999004602432251, -1.0000040531158447, -0.999735414981842], "name" : "NORMAL"}, {"bufferView" : 3, "byteOffset" : 24, "componentType" : 5126, "count" : 711, "type" : "VEC2", "max" : [2.780113935470581, 4.476833343505859], "min" : [-4.248758316040039, -1.4893393516540527], "name" : "TEXCOORD_0"}, {"bufferView" : 0, "byteOffset" : 25320, "componentType" : 5123, "count" : 2880, "type" : "SCALAR", "max" : [558], "min" : [0]}, {"bufferView" : 4, "byteOffset" : 0, "componentType" : 5126, "count" : 559, "type" : "VEC3", "max" : [36.83998489379883, 28.470638275146484, 119.67018127441406], "min" : [-40.98693084716797, -32.29069900512695, 67.95987701416016], "name" : "POSITION"}, {"bufferView" : 4, "byteOffset" : 12, "componentType" : 5126, "count" : 559, "type" : "VEC3", "max" : [1.0000044107437134, 1.0000044107437134, 1.0000044107437134], "min" : [-1.0000044107437134, -1.0000044107437134, -1.0000044107437134], "name" : "NORMAL"}, {"bufferView" : 4, "byteOffset" : 24, "componentType" : 5126, "count" : 559, "type" : "VEC2", "max" : [1.000000238418579, 2], "min" : [0, 0.9999998807907104], "name" : "TEXCOORD_0"}, {"bufferView" : 0, "byteOffset" : 31080, "componentType" : 5123, "count" : 60, "type" : "SCALAR", "max" : [59], "min" : [0]}, {"bufferView" : 5, "byteOffset" : 0, "componentType" : 5126, "count" : 60, "type" : "VEC3", "max" : [945.0025634765625, 1.71661376953125E-05, 534.8067626953125], "min" : [-945.002685546875, -1.811981201171875E-05, -534.8067016601562], "name" : "POSITION"}, {"bufferView" : 5, "byteOffset" : 12, "componentType" : 5126, "count" : 60, "type" : "VEC3", "max" : [9.68413041846361E-06, -1.0000044107437134, 1.0141910934180487E-05], "min" : [-3.1559537205794186E-08, -1.0000044107437134, -3.3051389181082413E-08], "name" : "NORMAL"}, {"bufferView" : 5, "byteOffset" : 24, "componentType" : 5126, "count" : 60, "type" : "VEC2", "max" : [0.9970611333847046, 1.9950988292694092], "min" : [0.002933613723143935, 1.0049049854278564], "name" : "TEXCOORD_0"}, {"bufferView" : 0, "byteOffset" : 31200, "componentType" : 5123, "count" : 25569, "type" : "SCALAR", "max" : [4938], "min" : [0]}, {"bufferView" : 6, "byteOffset" : 0, "componentType" : 5126, "count" : 4939, "type" : "VEC3", "max" : [462.39208984375, 183.375, 232.9556884765625], "min" : [-462.43243408203125, -1.1562957763671875, -558.892333984375], "name" : "POSITION"}, {"bufferView" : 6, "byteOffset" : 12, "componentType" : 5126, "count" : 4939, "type" : "VEC3", "max" : [1.0000044107437134, 1.0000044107437134, 1.0000044107437134], "min" : [-1.0000044107437134, -1.0000044107437134, -1.0000044107437134], "name" : "NORMAL"}, {"bufferView" : 6, "byteOffset" : 24, "componentType" : 5126, "count" : 4939, "type" : "VEC2", "max" : [80.17070007324219, 10.013840675354004], "min" : [-13.132980346679688, -6.527832984924316], "name" : "TEXCOORD_0"}, {"bufferView" : 0, "byteOffset" : 82340, "componentType" : 5123, "count" : 6780, "type" : "SCALAR", "max" : [1216], "min" : [0]}, {"bufferView" : 7, "byteOffset" : 0, "componentType" : 5126, "count" : 1217, "type" : "VEC3", "max" : [189.9971923828125, 23.702880859375, -566.7989501953125], "min" : [-189.57293701171875, 9.171334266662598, -581.3541870117188], "name" : "POSITION"}, {"bufferView" : 7, "byteOffset" : 12, "componentType" : 5126, "count" : 1217, "type" : "VEC3", "max" : [0.965149998664856, 1.0000044107437134, 1.0000044107437134], "min" : [-0.9651118516921997, -0.9998834729194641, -1.0000044107437134], "name" : "NORMAL"}, {"bufferView" : 7, "byteOffset" : 24, "componentType" : 5126, "count" : 1217, "type" : "VEC2", "max" : [0.9913229942321777, 1.382446527481079], "min" : [0.007150120101869106, 1.013052225112915], "name" : "TEXCOORD_0"}, {"bufferView" : 0, "byteOffset" : 95900, "componentType" : 5123, "count" : 34770, "type" : "SCALAR", "max" : [9203], "min" : [0]}, {"bufferView" : 8, "byteOffset" : 0, "componentType" : 5126, "count" : 9204, "type" : "VEC3", "max" : [963.352783203125, 183.4001922607422, 544.3807373046875], "min" : [-963.3526611328125, -1.0003986358642578, -581.3995361328125], "name" : "POSITION"}, {"bufferView" : 8, "byteOffset" : 12, "componentType" : 5126, "count" : 9204, "type" : "VEC3", "max" : [1.0000044107437134, 1.0000044107437134, 1.0000044107437134], "min" : [-1.0000044107437134, -1.0000044107437134, -1.0000044107437134], "name" : "NORMAL"}, {"bufferView" : 8, "byteOffset" : 24, "componentType" : 5126, "count" : 9204, "type" : "VEC2", "max" : [0.99980229139328, 1.6735376119613647], "min" : [0.0040160417556762695, 1.0041468143463135], "name" : "TEXCOORD_0"}, {"bufferView" : 0, "byteOffset" : 165440, "componentType" : 5123, "count" : 15582, "type" : "SCALAR", "max" : [6884], "min" : [0]}, {"bufferView" : 9, "byteOffset" : 0, "componentType" : 5126, "count" : 6885, "type" : "VEC3", "max" : [952.1351318359375, 181.62913513183594, 541.832763671875], "min" : [-952.0686645507812, 17.81107521057129, -77.02041625976562], "name" : "POSITION"}, {"bufferView" : 9, "byteOffset" : 12, "componentType" : 5126, "count" : 6885, "type" : "VEC3", "max" : [1.0000044107437134, 1.0000044107437134, 1.0000044107437134], "min" : [-1.0000044107437134, -1.0000044107437134, -1.0000044107437134], "name" : "NORMAL"}, {"bufferView" : 9, "byteOffset" : 24, "componentType" : 5126, "count" : 6885, "type" : "VEC2", "max" : [1, 1.9772053956985474], "min" : [3.794549385816026E-08, 1.0227946043014526], "name" : "TEXCOORD_0"}, {"bufferView" : 0, "byteOffset" : 196604, "componentType" : 5123, "count" : 8124, "type" : "SCALAR", "max" : [1487], "min" : [0]}, {"bufferView" : 10, "byteOffset" : 0, "componentType" : 5126, "count" : 1488, "type" : "VEC3", "max" : [464.377685546875, 122.60345458984375, 195.29901123046875], "min" : [-464.3851013183594, 64.32788848876953, -93.49188232421875], "name" : "POSITION"}, {"bufferView" : 10, "byteOffset" : 12, "componentType" : 5126, "count" : 1488, "type" : "VEC3", "max" : [1.0000044107437134, 0.9996753931045532, 0.9917612075805664], "min" : [-1.0000044107437134, -0.9954820275306702, -0.99978107213974], "name" : "NORMAL"}, {"bufferView" : 10, "byteOffset" : 24, "componentType" : 5126, "count" : 1488, "type" : "VEC2", "max" : [16.536584854125977, 3.806360960006714], "min" : [-3.1954467516470686E-08, -2.0212106704711914], "name" : "TEXCOORD_0"}, {"bufferView" : 0, "byteOffset" : 212852, "componentType" : 5123, "count" : 516, "type" : "SCALAR", "max" : [312], "min" : [0]}, {"bufferView" : 11, "byteOffset" : 0, "componentType" : 5126, "count" : 313, "type" : "VEC3", "max" : [963.352783203125, 19.227523803710938, 544.3807373046875], "min" : [-963.3525390625, -1.0003223419189453, -566.49658203125], "name" : "POSITION"}, {"bufferView" : 11, "byteOffset" : 12, "componentType" : 5126, "count" : 313, "type" : "VEC3", "max" : [7.409648242173716E-05, 1.8806678781402297E-05, 1.0000044107437134], "min" : [-7.410514808725566E-05, -1.9353283278178424E-05, -1.0000044107437134], "name" : "NORMAL"}, {"bufferView" : 11, "byteOffset" : 24, "componentType" : 5126, "count" : 313, "type" : "VEC2", "max" : [2.2638683319091797, 1.9841490983963013], "min" : [-1.1816762685775757, 1.0151270627975464], "name" : "TEXCOORD_0"}, {"bufferView" : 0, "byteOffset" : 213884, "componentType" : 5123, "count" : 60, "type" : "SCALAR", "max" : [55], "min" : [0]}, {"bufferView" : 12, "byteOffset" : 0, "componentType" : 5126, "count" : 56, "type" : "VEC3", "max" : [945.0027465820312, 0.000274658203125, 534.8069458007812], "min" : [-945.0027465820312, -0.000213623046875, -534.806884765625], "name" : "POSITION"}, {"bufferView" : 12, "byteOffset" : 12, "componentType" : 5126, "count" : 56, "type" : "VEC3", "max" : [9.651052096160129E-06, -1.0000044107437134, 1.0141910934180487E-05], "min" : [-6.463433521730622E-08, -1.0000044107437134, -3.3051357206659304E-08], "name" : "NORMAL"}, {"bufferView" : 12, "byteOffset" : 24, "componentType" : 5126, "count" : 56, "type" : "VEC2", "max" : [1.0009844303131104, 2.0014333724975586], "min" : [-0.0008613467216491699, 0.9985939264297485], "name" : "TEXCOORD_0"}], "asset" : {"generator" : "Aspose.3D 24.6.0", "version" : "2.0"}, "buffers" : [{"uri" : "data:application/octet-stream;base64,", "byteLength" : 1081672}], "bufferViews" : [{"buffer" : 0, "byteOffset" : 0, "byteLength" : 214004, "target" : 34963}, {"buffer" : 0, "byteOffset" : 214008, "byteLength" : 6144, "byteStride" : 32, "target" : 34962}, {"buffer" : 0, "byteOffset" : 220156, "byteLength" : 47648, "byteStride" : 32, "target" : 34962}, {"buffer" : 0, "byteOffset" : 267808, "byteLength" : 22752, "byteStride" : 32, "target" : 34962}, {"buffer" : 0, "byteOffset" : 290564, "byteLength" : 17888, "byteStride" : 32, "target" : 34962}, {"buffer" : 0, "byteOffset" : 308456, "byteLength" : 1920, "byteStride" : 32, "target" : 34962}, {"buffer" : 0, "byteOffset" : 310380, "byteLength" : 158048, "byteStride" : 32, "target" : 34962}, {"buffer" : 0, "byteOffset" : 468432, "byteLength" : 38944, "byteStride" : 32, "target" : 34962}, {"buffer" : 0, "byteOffset" : 507380, "byteLength" : 294528, "byteStride" : 32, "target" : 34962}, {"buffer" : 0, "byteOffset" : 801912, "byteLength" : 220320, "byteStride" : 32, "target" : 34962}, {"buffer" : 0, "byteOffset" : 1022236, "byteLength" : 47616, "byteStride" : 32, "target" : 34962}, {"buffer" : 0, "byteOffset" : 1069856, "byteLength" : 10016, "byteStride" : 32, "target" : 34962}, {"buffer" : 0, "byteOffset" : 1079876, "byteLength" : 1792, "byteStride" : 32, "target" : 34962}], "images" : [{"uri" : "data:image/jpeg;base64,"}], "materials" : [{"name" : "phong19", "extensions" : {"KHR_materials_unlit" : {}}, "pbrMetallicRoughness" : {"baseColorFactor" : [0, 0, 0, 1], "metallicFactor" : 0, "roughnessFactor" : 1}, "emissiveFactor" : [0, 0, 0], "alphaMode" : "OPAQUE", "doubleSided" : true}, {"name" : "phong2", "extensions" : {"KHR_materials_unlit" : {}}, "pbrMetallicRoughness" : {"baseColorFactor" : [0.00392157, 0.00392157, 0.00392157, 1], "metallicFactor" : 0, "roughnessFactor" : 1}, "emissiveFactor" : [0, 0, 0], "alphaMode" : "OPAQUE", "doubleSided" : true}, {"name" : "phong1", "extensions" : {"KHR_materials_unlit" : {}}, "pbrMetallicRoughness" : {"baseColorFactor" : [0.0117647, 0.0117647, 0.0117647, 1], "metallicFactor" : 0, "roughnessFactor" : 1}, "emissiveFactor" : [0, 0, 0], "alphaMode" : "OPAQUE", "doubleSided" : true}, {"name" : "phong3", "extensions" : {"KHR_materials_unlit" : {}}, "pbrMetallicRoughness" : {"baseColorFactor" : [0.0980392, 0.109804, 0.109804, 1], "metallicFactor" : 0, "roughnessFactor" : 1}, "emissiveFactor" : [0, 0, 0], "alphaMode" : "OPAQUE", "doubleSided" : true}, {"name" : "phong22", "extensions" : {"KHR_materials_unlit" : {}}, "pbrMetallicRoughness" : {"baseColorFactor" : [0, 0, 0, 1], "metallicFactor" : 0, "roughnessFactor" : 1}, "emissiveFactor" : [0, 0, 0], "alphaMode" : "OPAQUE", "doubleSided" : true}, {"name" : "phong23", "extensions" : {"KHR_materials_unlit" : {}}, "pbrMetallicRoughness" : {"baseColorFactor" : [0.392157, 0.392157, 0.392157, 1], "metallicFactor" : 0, "roughnessFactor" : 1}, "emissiveFactor" : [0, 0, 0], "alphaMode" : "OPAQUE", "doubleSided" : true}, {"name" : "phong26", "extensions" : {"KHR_materials_unlit" : {}}, "pbrMetallicRoughness" : {"baseColorFactor" : [0.309804, 0.352941, 0.384314, 1], "metallicFactor" : 0, "roughnessFactor" : 1}, "emissiveFactor" : [0, 0, 0], "alphaMode" : "OPAQUE", "doubleSided" : true}, {"name" : "phong21", "extensions" : {"KHR_materials_unlit" : {}}, "pbrMetallicRoughness" : {"baseColorFactor" : [0, 0, 0, 1], "metallicFactor" : 0, "roughnessFactor" : 1}, "emissiveFactor" : [0, 0, 0], "alphaMode" : "OPAQUE", "doubleSided" : true}, {"name" : "phong24", "extensions" : {"KHR_materials_unlit" : {}}, "pbrMetallicRoughness" : {"baseColorFactor" : [0.0470588, 0.0470588, 0.0470588, 1], "metallicFactor" : 0, "roughnessFactor" : 1}, "emissiveFactor" : [0, 0, 0], "alphaMode" : "OPAQUE", "doubleSided" : true}, {"name" : "phong27", "extensions" : {"KHR_materials_unlit" : {}}, "pbrMetallicRoughness" : {"baseColorFactor" : [0.0509804, 0.0588235, 0.0666667, 1], "metallicFactor" : 0, "roughnessFactor" : 1}, "emissiveFactor" : [0, 0, 0], "alphaMode" : "OPAQUE", "doubleSided" : true}, {"name" : "phong25", "extensions" : {"KHR_materials_unlit" : {}}, "pbrMetallicRoughness" : {"baseColorFactor" : [0.5, 0.5, 0.5, 1], "metallicFactor" : 0, "roughnessFactor" : 1}, "emissiveFactor" : [0, 0, 0], "alphaMode" : "OPAQUE", "doubleSided" : true}, {"name" : "phong29", "extensions" : {"KHR_materials_unlit" : {}}, "pbrMetallicRoughness" : {"baseColorFactor" : [1, 1, 1, 1], "baseColorTexture" : {"index" : 0, "texCoord" : 0}, "metallicFactor" : 0, "roughnessFactor" : 1}, "emissiveFactor" : [0, 0, 0], "alphaMode" : "OPAQUE", "doubleSided" : true}], "meshes" : [{"primitives" : [{"attributes" : {"POSITION" : 1, "NORMAL" : 2, "TEXCOORD_0" : 3}, "indices" : 0, "material" : 0, "mode" : 4}]}, {"primitives" : [{"attributes" : {"POSITION" : 5, "NORMAL" : 6, "TEXCOORD_0" : 7}, "indices" : 4, "material" : 1, "mode" : 4}]}, {"primitives" : [{"attributes" : {"POSITION" : 9, "NORMAL" : 10, "TEXCOORD_0" : 11}, "indices" : 8, "material" : 2, "mode" : 4}]}, {"primitives" : [{"attributes" : {"POSITION" : 13, "NORMAL" : 14, "TEXCOORD_0" : 15}, "indices" : 12, "material" : 3, "mode" : 4}]}, {"primitives" : [{"attributes" : {"POSITION" : 17, "NORMAL" : 18, "TEXCOORD_0" : 19}, "indices" : 16, "material" : 4, "mode" : 4}]}, {"primitives" : [{"attributes" : {"POSITION" : 21, "NORMAL" : 22, "TEXCOORD_0" : 23}, "indices" : 20, "material" : 5, "mode" : 4}]}, {"primitives" : [{"attributes" : {"POSITION" : 25, "NORMAL" : 26, "TEXCOORD_0" : 27}, "indices" : 24, "material" : 6, "mode" : 4}]}, {"primitives" : [{"attributes" : {"POSITION" : 29, "NORMAL" : 30, "TEXCOORD_0" : 31}, "indices" : 28, "material" : 7, "mode" : 4}]}, {"primitives" : [{"attributes" : {"POSITION" : 33, "NORMAL" : 34, "TEXCOORD_0" : 35}, "indices" : 32, "material" : 8, "mode" : 4}]}, {"primitives" : [{"attributes" : {"POSITION" : 37, "NORMAL" : 38, "TEXCOORD_0" : 39}, "indices" : 36, "material" : 9, "mode" : 4}]}, {"primitives" : [{"attributes" : {"POSITION" : 41, "NORMAL" : 42, "TEXCOORD_0" : 43}, "indices" : 40, "material" : 10, "mode" : 4}]}, {"primitives" : [{"attributes" : {"POSITION" : 45, "NORMAL" : 46, "TEXCOORD_0" : 47}, "indices" : 44, "material" : 11, "mode" : 4}]}], "nodes" : [{"mesh" : 0, "name" : "RenderStuff_LED_LCD_TV_phong19_0"}, {"mesh" : 1, "name" : "RenderStuff_LED_LCD_TV_phong2_0"}, {"mesh" : 2, "name" : "RenderStuff_LED_LCD_TV_phong1_0"}, {"mesh" : 3, "name" : "RenderStuff_LED_LCD_TV_phong3_0"}, {"children" : [0, 1, 2, 3], "matrix" : [-0.006162366829812527, -1.3581284179451393E-15, 1.555600088214351E-31, 0, -4.047671429533741E-28, 1.8376541738170323E-15, 0.006162366829812527, 0, -1.3581284179451393E-15, 0.006162366829812527, -1.8376541738170323E-15, 0, 0.6857202053070068, 0.13001374900341034, 2.0987579822540283, 1], "name" : "RenderStuff_LED_LCD_TV"}, {"mesh" : 4, "name" : "W8 Led TV_on wall_phong22_0"}, {"mesh" : 5, "name" : "W8 Led TV_on wall_phong23_0"}, {"mesh" : 6, "name" : "W8 Led TV_on wall_phong26_0"}, {"mesh" : 7, "name" : "W8 Led TV_on wall_phong21_0"}, {"mesh" : 8, "name" : "W8 Led TV_on wall_phong24_0"}, {"mesh" : 9, "name" : "W8 Led TV_on wall_phong27_0"}, {"mesh" : 10, "name" : "W8 Led TV_on wall_phong25_0"}, {"children" : [5, 6, 7, 8, 9, 10, 11], "matrix" : [-0.003957945387810469, -0, -0, -0, -0, 7.368602275039891E-06, -0.003957938528652343, -0, -0, 0.003957938528652343, 7.368602275039891E-06, -0, 0.7052721977233887, 2.9286446571350098, 2.392457962036133, 1], "name" : "W8 Led TV_on wall"}, {"mesh" : 11, "name" : "W8 Led TV_on wall_display001_phong29_0"}, {"children" : [13], "matrix" : [0.003887647297233343, 4.760994818770674E-19, 4.760994818770674E-19, -0, -4.7609948187705225E-19, -1.2257881736469017E-16, 0.003887647297233343, -0, -4.760994818770823E-19, 0.003887647297233343, 1.2257881736469017E-16, -0, 0.7094437479972839, 2.910712480545044, 2.406275510787964, 1], "name" : "W8 Led TV_on wall_display001"}, {"children" : [4, 12, 14], "matrix" : [2.863428831100464, 0, 0, 0, 0, 2.863428831100464, 0, 0, 0, 0, 2.863428831100464, 0, 0, 0, 0, 1], "name" : "group2"}, {"children" : [15], "name" : "group1"}, {"children" : [16], "name" : "RootNode"}, {"children" : [17], "matrix" : [1, 0, 0, 0, 0, 0, 1, 0, 0, -1, 0, 0, 0, 0, 0, 1], "name" : "123123.fbx"}, {"children" : [18], "matrix" : [0.0014207027035320619, 1.0365784169962704E-17, -0.04668334172524702, 0, -0.04668334172524702, 3.1545937052170056E-19, -0.0014207027035320619, 0, 0, 0.04670495539903641, 1.0370583369620247E-17, 0, -4.098360538482666, -1.7527009032493324E-15, 7.893463134765625, 1], "name" : "Sketchfab_model"}], "samplers" : [{"magFilter" : 9729, "minFilter" : 9987, "wrapS" : 10497, "wrapT" : 10497}], "scene" : 0, "scenes" : [{"nodes" : [19]}], "textures" : [{"sampler" : 0, "source" : 0, "name" : ""}]}