{"accessors" : [{"bufferView" : 0, "byteOffset" : 0, "componentType" : 5123, "count" : 6360, "type" : "SCALAR", "max" : [2404], "min" : [0]}, {"bufferView" : 1, "byteOffset" : 0, "componentType" : 5126, "count" : 2405, "type" : "VEC3", "max" : [1.086936354637146, 0.09067244827747345, 0.5881984829902649], "min" : [-1.0880615711212158, -0.18765239417552948, -1.0953294038772583], "name" : "POSITION"}, {"bufferView" : 1, "byteOffset" : 12, "componentType" : 5126, "count" : 2405, "type" : "VEC3", "max" : [1.0000044107437134, 1.0000044107437134, 1.0000044107437134], "min" : [-1.0000044107437134, -1.0000044107437134, -1.0000044107437134], "name" : "NORMAL"}, {"bufferView" : 1, "byteOffset" : 24, "componentType" : 5126, "count" : 2405, "type" : "VEC4", "max" : [1.0000044107437134, 1.0000044107437134, 1.0000044107437134, 1], "min" : [-1.0000044107437134, -1.0000044107437134, -1.0000044107437134, -1], "name" : "TANGENT"}, {"bufferView" : 1, "byteOffset" : 40, "componentType" : 5126, "count" : 2405, "type" : "VEC2", "max" : [1.9884400367736816, 1.9949190616607666], "min" : [0.012660900130867958, 1.0050809383392334], "name" : "TEXCOORD_0"}, {"bufferView" : 1, "byteOffset" : 48, "componentType" : 5126, "count" : 2405, "type" : "VEC2", "max" : [1.9884400367736816, 1.9949190616607666], "min" : [0.012660900130867958, 1.0050809383392334], "name" : "TEXCOORD_1"}, {"bufferView" : 1, "byteOffset" : 56, "componentType" : 5126, "count" : 2405, "type" : "VEC2", "max" : [1.9884400367736816, 1.9949190616607666], "min" : [0.012660900130867958, 1.0050809383392334], "name" : "TEXCOORD_2"}, {"bufferView" : 0, "byteOffset" : 12720, "componentType" : 5123, "count" : 12, "type" : "SCALAR", "max" : [5], "min" : [0]}, {"bufferView" : 2, "byteOffset" : 0, "componentType" : 5126, "count" : 6, "type" : "VEC3", "max" : [1.0677402019500732, -2.384185791015625E-07, 0.5851893424987793], "min" : [-1.0677402019500732, -4.76837158203125E-07, -0.5859495401382446], "name" : "POSITION"}, {"bufferView" : 2, "byteOffset" : 12, "componentType" : 5126, "count" : 6, "type" : "VEC3", "max" : [0, -1.0000044107437134, 0], "min" : [0, -1.0000044107437134, -4.079527684552886E-07], "name" : "NORMAL"}, {"bufferView" : 2, "byteOffset" : 24, "componentType" : 5126, "count" : 6, "type" : "VEC4", "max" : [1.0000044107437134, 0, 0, 1], "min" : [1.0000044107437134, 0, 0, 1], "name" : "TANGENT"}, {"bufferView" : 2, "byteOffset" : 40, "componentType" : 5126, "count" : 6, "type" : "VEC2", "max" : [0.7193310260772705, 1.8156590461730957], "min" : [0.019139699637889862, 1.431663990020752], "name" : "TEXCOORD_0"}, {"bufferView" : 2, "byteOffset" : 48, "componentType" : 5126, "count" : 6, "type" : "VEC2", "max" : [0.7193310260772705, 1.8156590461730957], "min" : [0.019139699637889862, 1.431663990020752], "name" : "TEXCOORD_1"}, {"bufferView" : 2, "byteOffset" : 56, "componentType" : 5126, "count" : 6, "type" : "VEC2", "max" : [0.7193310260772705, 1.8156590461730957], "min" : [0.019139699637889862, 1.431663990020752], "name" : "TEXCOORD_2"}], "asset" : {"generator" : "Aspose.3D 24.6.0", "version" : "2.0"}, "buffers" : [{"uri" : "data:application/octet-stream;base64,", "byteLength" : 167060}], "bufferViews" : [{"buffer" : 0, "byteOffset" : 0, "byteLength" : 12744, "target" : 34963}, {"buffer" : 0, "byteOffset" : 12748, "byteLength" : 153920, "byteStride" : 64, "target" : 34962}, {"buffer" : 0, "byteOffset" : 166672, "byteLength" : 384, "byteStride" : 64, "target" : 34962}], "images" : [{"uri" : "data:image/png;base64,"}, {"uri" : "data:image/png;base64,"}, {"uri" : "data:image/png;base64,"}, {"uri" : "data:image/png;base64,"}], "materials" : [{"name" : "Default_OBJ.002", "pbrMetallicRoughness" : {"baseColorFactor" : [1, 1, 1, 1], "baseColorTexture" : {"index" : 2, "texCoord" : 0}, "metallicFactor" : 1, "roughnessFactor" : 1, "metallicRoughnessTexture" : {"index" : 3, "texCoord" : 0}}, "normalTexture" : {"index" : 1, "texCoord" : 0, "scale" : 1}, "emissiveTexture" : {"index" : 0, "texCoord" : 0}, "emissiveFactor" : [1, 1, 1], "alphaMode" : "OPAQUE", "doubleSided" : true}, {"name" : "Default_OBJ.002", "pbrMetallicRoughness" : {"baseColorFactor" : [1, 1, 1, 1], "baseColorTexture" : {"index" : 2, "texCoord" : 0}, "metallicFactor" : 1, "roughnessFactor" : 1, "metallicRoughnessTexture" : {"index" : 3, "texCoord" : 0}}, "normalTexture" : {"index" : 1, "texCoord" : 0, "scale" : 1}, "emissiveTexture" : {"index" : 0, "texCoord" : 0}, "emissiveFactor" : [1, 1, 1], "alphaMode" : "OPAQUE", "doubleSided" : true}], "meshes" : [{"primitives" : [{"attributes" : {"POSITION" : 1, "NORMAL" : 2, "TANGENT" : 3, "TEXCOORD_0" : 4, "TEXCOORD_1" : 5, "TEXCOORD_2" : 6}, "indices" : 0, "material" : 0, "mode" : 4}]}, {"primitives" : [{"attributes" : {"POSITION" : 8, "NORMAL" : 9, "TANGENT" : 10, "TEXCOORD_0" : 11, "TEXCOORD_1" : 12, "TEXCOORD_2" : 13}, "indices" : 7, "material" : 1, "mode" : 4}]}], "nodes" : [{"mesh" : 0, "name" : "Object36.001_Default OBJ.002_0"}, {"children" : [0], "matrix" : [100, 0, 0, 0, 0, -1.629206793918314E-05, -99.99999999999868, 0, 0, 99.99999999999868, -1.629206793918314E-05, 0, 0.05865976959466934, 251.36341857910156, -356.0713806152344, 1], "name" : "Object36.001"}, {"mesh" : 1, "name" : "Object36.002_Default OBJ.002_0"}, {"children" : [2], "matrix" : [100, 0, 0, 0, 0, -1.629206793918314E-05, -99.99999999999868, 0, 0, 99.99999999999868, -1.629206793918314E-05, 0, 0.00247955322265625, 213.9258575439453, -351.3461608886719, 1], "name" : "Object36.002"}, {"children" : [1, 3], "name" : "RootNode"}, {"children" : [4], "matrix" : [0.009999999776482582, 0, 0, 0, 0, 0, 0.009999999776482582, 0, 0, -0.009999999776482582, 0, 0, 0, 0, 0, 1], "name" : "bbc0dec837b1461d895d72458e021ba1.fbx"}, {"children" : [5], "matrix" : [1, 0, 0, 0, 0, 2.220446049250313E-16, -1, 0, 0, 1, 2.220446049250313E-16, 0, 0, 0, 0, 1], "name" : "Sketchfab_model"}], "samplers" : [{"magFilter" : 9729, "minFilter" : 9987, "wrapS" : 10497, "wrapT" : 10497}, {"magFilter" : 9729, "minFilter" : 9987, "wrapS" : 10497, "wrapT" : 10497}, {"magFilter" : 9729, "minFilter" : 9987, "wrapS" : 10497, "wrapT" : 10497}, {"magFilter" : 9729, "minFilter" : 9987, "wrapS" : 10497, "wrapT" : 10497}], "scene" : 0, "scenes" : [{"nodes" : [6]}], "textures" : [{"sampler" : 0, "source" : 0, "name" : ""}, {"sampler" : 1, "source" : 1, "name" : ""}, {"sampler" : 2, "source" : 2, "name" : ""}, {"sampler" : 3, "source" : 3, "name" : ""}]}